<?xml version="1.0" encoding="UTF-8"?><svg id="Layer_7" xmlns="http://www.w3.org/2000/svg" viewBox="0 0 1053.1 1031.6"><defs><style>.cls-1{fill:#fff;}</style></defs><polygon class="cls-1" points="404.48 522.87 404.48 795.54 161.31 522.87 35.65 522.87 35.65 522.87 35.65 1031.6 175.55 1031.6 175.55 758.93 415.33 1031.6 544.38 1031.6 544.38 522.87 404.48 522.87"/><path class="cls-1" d="M1053.02,309.23v-105.54h0s0,0,0-.01V25.62h-136.85s-3.05-.01-3.05-.01V309.23c0,12.46-1.94,23.76-5.85,34.01-4.99,13.07-13.2,24.43-24.74,34.3-21.48,18.4-52.74,29.41-83.67,29.49v-.04s-.01,0-.01,0c-.03,0-.06,0-.1,0-.03,0-.06,0-.1,0h0s-.01,.05-.01,.05c-30.93-.08-62.19-11.09-83.67-29.49-11.54-9.88-19.75-21.23-24.74-34.3-3.92-10.25-5.85-21.55-5.85-34.01V25.6h-3.05s-136.85,.01-136.85,.01V203.68s0,0,0,.01h0v139.55h0c0,112.48,121.46,201.86,247.8,203.65,1.31,.02,2.62,.05,3.93,.05,.5,0,1-.01,1.5-.02,.32,0,.64,0,.95,.01h0s.06,0,.1,0c.03,0,.06,0,.1,0,.06,0,.12,0,.18,0h-.06c.28-.01,.56-.02,.83-.02,.5,0,1,.02,1.5,.02,1.31,0,2.62-.03,3.93-.05,126.34-1.79,247.8-88.6,247.8-203.65h0v-34.01Z"/><path class="cls-1" d="M392.02,343.24c-22.58,37.67-62.87,62.93-108.97,63.57-.6,0-1.19,.03-1.79,.03-71.77,0-129.94-59.71-129.96-133.37,.01-73.66,58.19-133.37,129.96-133.37,.6,0,1.2,.02,1.79,.03,46.09,.64,86.39,25.9,108.97,63.57h152.42C544.44,88.93,423.58,2.28,297.58,.07c-.31,0-.62-.02-.94-.02-1.31-.02-2.62-.05-3.93-.05-.5,0-1,.01-1.51,.02-.28,0-.55,0-.83-.01h.06c-.06,0-.12,0-.18,0-.03,0-.06,0-.1,0-.03,0-.06,0-.1,0h0c-.32,0-.64,.01-.95,.02-.5,0-1-.02-1.5-.02-1.31,0-2.61,.03-3.92,.05h-10.25C173.33,.05,85.8,53.86,38.15,134.12,13.93,174.92,0,222.56,0,273.44h0v.05H0c0,50.89,13.93,98.52,38.15,139.32,47.65,80.27,135.18,134.08,235.29,134.08h10.25c1.3,.02,2.61,.05,3.92,.05,.5,0,1-.01,1.5-.02,.32,0,.64,0,.95,.01h0s.06,0,.1,0c.03,0,.06,0,.1,0,.06,0,.12,0,.18,0h-.06c.28-.01,.55-.02,.83-.02,.5,0,1,.02,1.51,.02,1.31,0,2.62-.03,3.93-.05,.31,0,.62-.02,.94-.02,126-2.21,246.86-88.86,246.86-203.62h-152.42Z"/><polygon class="cls-1" points="913.2 522.87 798.74 756.28 684.28 522.87 544.38 522.87 728.79 898.92 728.79 1031.6 868.69 1031.6 868.69 898.92 1053.1 522.87 913.2 522.87"/></svg>