<svg fill="none" height="512" viewBox="0 0 32 32" width="512" xmlns="http://www.w3.org/2000/svg"><path d="m13.6667 5.33333c0-1.28866 1.0446-2.33333 2.3333-2.33333s2.3333 1.04467 2.3333 2.33333c0 .6529-.2681 1.24316-.7003 1.66667h.367c1.6569 0 3 1.34315 3 3v2c0 .5523-.4477 1-1 1h-3v11.5h5.0415c.238-1.4189 1.472-2.5 2.9585-2.5h.367c-.4322-.4235-.7003-1.0138-.7003-1.6667 0-1.2886 1.0446-2.3333 2.3333-2.3333s2.3333 1.0447 2.3333 2.3333c0 .6529-.2681 1.2432-.7003 1.6667h.367c1.6569 0 3 1.3431 3 3v2c0 .5523-.4477 1-1 1h-8c-.5523 0-1-.4477-1-1v-.5h-12v.5c0 .5523-.44771 1-1 1h-8c-.552285 0-1-.4477-1-1v-2c0-1.6569 1.34315-3 3-3h.36699c-.43218-.4235-.70033-1.0138-.70033-1.6667 0-1.2886 1.04467-2.3333 2.33333-2.3333s2.33333 1.0447 2.33333 2.3333c0 .6529-.26815 1.2432-.70033 1.6667h.36701c1.4865 0 2.72048 1.0811 2.95852 2.5h5.04148v-11.5h-3c-.5523 0-1-.4477-1-1v-2c0-1.65685 1.3431-3 3-3h.367c-.4322-.42351-.7003-1.01377-.7003-1.66667z" fill="rgb(0,0,0)"/></svg>