<?xml version='1.0' encoding='iso-8859-1'?>
<!DOCTYPE svg PUBLIC '-//W3C//DTD SVG 1.1//EN' 'http://www.w3.org/Graphics/SVG/1.1/DTD/svg11.dtd'>
<svg version="1.1" xmlns="http://www.w3.org/2000/svg" viewBox="0 0 297.5 297.5" xmlns:xlink="http://www.w3.org/1999/xlink" enable-background="new 0 0 297.5 297.5">
  <g>
    <path d="M93.593,71.686c19.764,0,35.843-16.079,35.843-35.843S113.356,0,93.593,0S57.75,16.079,57.75,35.843   S73.829,71.686,93.593,71.686z M93.593,17c10.39,0,18.843,8.453,18.843,18.843s-8.453,18.843-18.843,18.843   S74.75,46.232,74.75,35.843S83.203,17,93.593,17z"/>
    <path d="m132.503,80.868c-0.064-0.021-9.842-3.022-9.842-3.022-4.324-1.328-8.931,0.966-10.479,5.215l-10.373,28.461-3.646-16.237 6.025-10.435c0.804-1.393 0.804-3.107 0-4.5-0.805-1.393-2.29-2.25-3.897-2.25h-13.395c-1.607,0-3.093,0.857-3.897,2.25-0.804,1.393-0.804,3.107 0,4.5l6.025,10.435-3.646,16.237-10.374-28.461c-1.55-4.25-6.156-6.545-10.479-5.215 0,0-9.777,3.001-9.842,3.022-14.52,4.839-24.275,18.374-24.275,33.68v58.952c0,1.659 0.485,3.281 1.396,4.668l20.289,30.875v79.957c0,4.694 3.806,8.5 8.5,8.5h66c4.694,0 8.5-3.806 8.5-8.5v-79.957l20.289-30.875c0.911-1.387 1.396-3.009 1.396-4.668v-58.952c0-15.306-9.756-28.841-24.275-33.68zm7.275,90.089l-20.289,30.875c-0.911,1.387-1.396,3.009-1.396,4.668v74h-49v-74c0-1.659-0.485-3.281-1.396-4.668l-20.289-30.875v-56.409c0-7.945 5.044-14.976 12.562-17.522l1.826-.561 23.812,65.332c1.224,3.355 4.414,5.589 7.986,5.589s6.763-2.233 7.986-5.589l23.812-65.332 1.825,.561c7.519,2.546 12.563,9.576 12.563,17.522v56.409z"/>
    <path d="M231.25,71.686c19.764,0,35.843-16.079,35.843-35.843S251.014,0,231.25,0s-35.843,16.079-35.843,35.843   S211.486,71.686,231.25,71.686z M231.25,17c10.39,0,18.843,8.453,18.843,18.843s-8.453,18.843-18.843,18.843   s-18.843-8.453-18.843-18.843S220.86,17,231.25,17z"/>
    <path d="m229.639,82.5c-18.875,0-34.231,15.356-34.231,34.231v172.269c0,4.694 3.806,8.5 8.5,8.5h39.425c4.694,0 8.5-3.806 8.5-8.5v-80.998l11.523-31.589c0.341-0.934 0.515-1.92 0.515-2.913v-56.769c-0.001-18.875-15.357-34.231-34.232-34.231zm17.231,89.498l-11.523,31.589c-0.341,0.934-0.515,1.92-0.515,2.913v74h-22.425v-163.769c0-9.501 7.73-17.231 17.231-17.231s17.231,7.73 17.231,17.231v55.267z"/>
  </g>
</svg>
