<?xml version="1.0" encoding="utf-8"?>
<!-- Generator: Adobe Illustrator 26.5.0, SVG Export Plug-In . SVG Version: 6.00 Build 0)  -->
<svg version="1.1" id="Layer_1" xmlns="http://www.w3.org/2000/svg" xmlns:xlink="http://www.w3.org/1999/xlink" x="0px" y="0px"
	 viewBox="0 0 3571 1181" style="enable-background:new 0 0 3571 1181;" xml:space="preserve">
<path d="M3571,609.5c-3.6,0.3-7.3,0.8-10.9,0.8c-117.6,0-235.3,0-352.9,0h-11.9c-1-10.3-0.4-19.8-0.4-30.6c4.6-0.2,8.8-0.1,12.9-0.6
	c16.5-1.7,33.1-3.4,49.6-5.6c4.6-0.6,9-2.4,13.3-4c19.9-7.6,27.2-20.7,22.7-44.7c-1.4-7.6-5-15.3-9.3-21.9
	c-42.9-66.3-86-132.3-129.2-198.4c-1.2-1.9-2.8-3.5-4.6-5.8c-3,2.2-5.7,4-8.3,6c-38.9,29.7-77.8,59.5-116.9,88.9
	c-5.4,4-7.6,8.2-7.5,14.9c0.6,30,0.5,59.9,1.3,89.9c0.2,9.2,2,18.5,4.2,27.5c4.7,19,16.5,32.2,34.7,39.8
	c17.1,7.2,35.2,9.6,53.5,11.6c7.6,0.8,15.2,1.4,23.6,2.2v28.8c-0.2,0.2-0.4,0.4-0.6,0.7c-0.2,0.2-0.5,0.6-0.8,0.6
	c-5.3,0.2-10.6,0.6-15.9,0.6c-129.6,0-259.2,0-390.1,0c-0.8-10.4-0.8-20,0-30.1c11.4-0.9,22.4-1.3,33.2-2.6c8.2-1,16.5-2.4,24.5-4.5
	c32-8.5,49.4-30.2,53.8-62.3c2-14.5,3.2-29.2,3.2-43.8c0.3-106.6,0.3-213.1,0-319.7c0-14.9-1.1-30-3.2-44.8
	c-5.6-41-28.8-64.4-69.8-70.6c-13.4-2-27.1-2.5-41.4-3.8c-1.8-9.2-0.5-18.7-0.7-28.2h415.9c0.3,9.5,1.3,19-0.7,29
	c-6.5,0.3-12.4,0.5-18.4,0.9c-18,1.2-35.6,4.2-52.9,9.6c-24.4,7.5-39.4,23.5-46.3,47.9c-4.8,16.8-6.8,33.9-6.9,51.3
	c-0.2,71.9-0.1,143.8-0.1,215.6c0,2.1,0.7,4.2,1.3,7.2c3.6-2.6,6.3-4.5,8.9-6.5c39.6-30.9,79.3-61.8,118.9-92.7
	c53-41.3,106-82.7,159.1-124c6.1-4.8,11.6-10,14.6-17.3c6-14.6,7.2-29.8,3.5-45c-5.7-23.1-22-35.6-44-41.8
	c-15.2-4.3-30.9-4.8-46.5-4.8c-5.2,0-10.4,0-16.5,0V0H3571v30c-3.6,0.1-7.4-0.1-10.9,0.5c-51.6,9.1-99.5,27.1-141.2,59.4
	c-48.5,37.5-96.6,75.5-144.8,113.3c-1.8,1.4-3.4,3-5.4,4.9c2.1,3.4,3.9,6.5,5.9,9.6c67.1,103.7,134.4,207.3,201.3,311.1
	c10.5,16.3,24.3,28.1,41.5,36.3c17,8.1,34.9,13,53.7,14.5L3571,609.5L3571,609.5z M3003,580.4c0.3-0.6,0.6-1.2,0.9-1.8
	c-13.6-12.9-21.7-29.1-27.4-46.2h-113.2c-4.3,8.9-7.7,17.6-12.4,25.5c-4.6,7.7-10.5,14.7-16.2,22.6L3003,580.4L3003,580.4z
	 M3460.7,581.2c-15.4-10.4-24.5-23.8-33.6-37.1c-3.8-5.5-7.7-10.9-11-16.7c-2.7-4.7-6.1-6.1-11.4-6c-25.3,0.2-50.6,0.1-75.9,0.2
	c-2.2,0-4.4,0.5-7.2,0.8c5.6,22,4.7,42.1-15.4,58.9L3460.7,581.2L3460.7,581.2z M3002,32.3c-8.2-2.2-158.9-2-165.3,0.2
	c6.1,9.3,12.7,18.4,18.1,28.2c3,5.5,6.2,7.4,12.3,7.4c35.3-0.3,70.6-0.1,105.9-0.1c2.3,0,4.6-0.2,6.1-0.3
	C2987,55.4,2994.6,43.7,3002,32.3z M2868.3,510.8h102.8c-0.8-15.8-1.6-30.9-2.5-46.5h-97.6C2870.2,480,2869.3,495.1,2868.3,510.8z
	 M2969,397.6c-33.4,0-65.7,0-98,0v44.8c12.2,2.1,90.7,1.6,98-0.6V397.6z M2871.5,333.3c-2,12.5-1.5,36,1,43.8c31.8,0,63.9,0,96.5,0
	v-43.8L2871.5,333.3L2871.5,333.3z M2870.9,311.9c33.1,0,65.4,0.2,97.7-0.2V270h-97.7V311.9z M3398.2,501
	c-10.7-17.2-20-32.4-29.8-47.4c-1.1-1.7-4.6-2.6-6.9-2.6c-23.3-0.2-46.5-0.1-69.8,0c-1.2,0-2.5,0.5-4.2,0.8c0.5,1.6,0.7,2.9,1.3,4
	c7.7,13.6,15.6,27,23.2,40.6c2.1,3.8,5,4.7,9,4.7c14.6-0.1,29.2,0,43.9,0C3375.1,501,3385.3,501,3398.2,501L3398.2,501z
	 M2968.8,208.2h-98.3c-0.1,13.7-0.5,26.7,0.2,39.9h98.1V208.2z M2968.6,186.9v-38.7h-97.7v38.7H2968.6z M2866.1,88.9
	c1.6,13.2,3.1,24.9,4.6,37h98.3c1.5-12.5,2.9-24.5,4.4-37H2866.1L2866.1,88.9z M3244.4,384.8c0.2,1.6,0.1,2.7,0.5,3.4
	c7.8,12.4,15.7,24.7,23.4,37.2c2.7,4.4,6.5,4.9,11.1,4.9c21.6-0.1,43.3,0,64.9-0.1c2.2,0,4.4-0.4,7.4-0.7c-0.8-1.8-1.2-3-1.9-4.1
	c-7.2-11.6-14.7-23-21.6-34.8c-2.9-4.9-6.3-6.8-12-6.7c-21.6,0.3-43.3,0.1-64.9,0.1C3249.1,384.2,3246.9,384.6,3244.4,384.8
	L3244.4,384.8z M3201.1,319.6c0.7,2,0.9,3.3,1.6,4.3c7.1,11.3,14.4,22.4,21.3,33.8c3,4.9,6.8,6.4,12.4,6.3c22-0.3,44-0.1,66-0.1
	c2.1,0,4.2-0.4,7.1-0.8c-7.9-12.8-15.6-24.5-22.5-36.5c-3.2-5.6-6.8-7.9-13.4-7.7c-21,0.5-42,0.1-63,0.2
	C3207.6,319,3204.7,319.4,3201.1,319.6L3201.1,319.6z M3268.1,298.4c-14.1-21.3-26.8-40.5-39.8-60.2c-19,14.7-36.8,28.5-55.1,42.5
	c2.4,3.7,4.7,6.6,6.4,9.8c3.4,6.2,8.4,8.3,15.6,8.1c17-0.5,34-0.1,50.9-0.1C3252.7,298.4,3259.3,298.4,3268.1,298.4L3268.1,298.4z
	 M3458.8,31.5h-126.5c4.3,6.4,8.4,11.6,11.5,17.3c2.4,4.4,5.4,5.9,10.3,5.8c20.3-0.2,40.6,0,60.9-0.2c2.9,0,6-0.7,8.5-2.1
	C3434.6,46.1,3445.7,39.3,3458.8,31.5L3458.8,31.5z M3394.4,72.6h-41c0.6,10.1,1.2,19.4,1.8,30.1
	C3368.5,92.4,3380.6,83.2,3394.4,72.6z"/>
<path d="M2453.3,0v28.6c-4.9,0.5-8.4,0.9-11.9,1.1c-45.7,2.9-77.6,25.6-95.4,67.5c-10.9,25.7-16.2,52.8-16.3,80.7
	c-0.1,139.5,0,279.1,0,418.6v14.2H2318c-36,0-72-0.2-108,0.2c-7.5,0.1-12.1-2.2-16.7-8.1c-91.3-117.2-182.7-234.2-274.2-351.3
	c-35.9-45.9-71.8-91.9-107.7-137.8c-1.6-2.1-3.3-4.1-5.3-6.6c-3.1,3.7-2,7.4-2,10.8c-0.1,78.3-0.1,156.5-0.1,234.8
	c0,35-0.5,69.9,0.2,104.9c0.3,15.5,1.9,31.3,5.1,46.5c7.2,33.3,27.9,55,60.3,66c16.2,5.5,33,7.6,50,9.2c2,0.2,3.9,0.5,6.6,0.8v28.5
	c-7.2,2.3-268.9,3.1-284.8,0.7v-29.3c11.6-1.5,22.7-2.7,33.8-4.2c16.8-2.3,33.4-5.7,49.4-11.9c29.7-11.5,44.6-33.4,46.6-64.7
	c0.4-5.6,0.3-11.3,0.3-17c0-131.9-0.1-263.8,0.2-395.6c0-7.9-2.1-13.7-7.4-19.6c-17.5-19-38.9-29.9-64.3-33
	c-13.6-1.7-27.2-2.7-40.8-4.1c-2.3-0.2-4.5-0.5-7.8-0.8V0c99.3,0,198.6,0,297.9,0c1.6,2.8,2.9,5.8,4.8,8.3
	c113,144.1,226,288.2,339.1,432.3c1.9,2.5,4.1,4.8,7.5,8.6c0.2-4.5,0.5-7,0.5-9.5c0-87.9,0.2-175.8-0.2-263.7
	c-0.1-13.6-1.5-27.3-3.9-40.6c-10.5-57.7-48.7-94.6-106.6-103.8c-7.5-1.2-15-2-23.3-3V0H2453.3L2453.3,0z M2122.4,463.8
	c1.9,3.3,2.7,5.1,3.8,6.5c9.4,12.1,19,24,28.1,36.3c3,4,6.4,5,11.1,4.9c35.6-0.1,71.2-0.1,106.8-0.1c2.1,0,4.2-0.6,7.7-1.1
	c-11-14.2-21.3-27.2-31.2-40.5c-3.3-4.5-7-6.2-12.6-6.1c-27.6,0.2-55.2,0.1-82.9,0.1C2143.7,463.8,2134.1,463.8,2122.4,463.8
	L2122.4,463.8z M2226.9,443c-2.3-3.5-3.8-5.9-5.5-8.2c-7.7-10-15.8-19.7-23.2-29.9c-3.9-5.3-8.1-7.5-14.9-7.5
	c-34.2,0.4-68.5,0.2-102.7,0.2c-2.9,0-5.7,0.2-9.8,0.4c2.1,3.2,3.4,5.4,4.9,7.4c8.1,10.5,16.6,20.8,24.4,31.6
	c3.8,5.2,8.1,6.7,14.3,6.7c34.2-0.3,68.5-0.1,102.7-0.1C2219.9,443.5,2222.7,443.2,2226.9,443L2226.9,443z M2020.3,333.3
	c2,3.1,3.3,5.3,4.8,7.3c7.7,10,15.7,19.8,23.2,30c3.5,4.8,7.4,6.6,13.4,6.6c34.9-0.2,69.9-0.1,104.8-0.1c2.5,0,4.9-0.5,8.4-0.9
	c-2.1-3.1-3.5-5.4-5.1-7.4c-7.5-9.7-15.4-19.2-22.6-29.2c-3.7-5.1-7.8-7.1-14.1-7.1c-34.3,0.3-68.6,0.1-102.8,0.2
	C2027.3,332.6,2024.4,333,2020.3,333.3L2020.3,333.3z M2301.5,580.2c0-12.5,0.1-24.4,0-36.3c-0.1-10-2.4-12.2-12.5-12.2
	c-35.3,0-70.6,0-105.8,0c-2.1,0-4.3,0.4-7.5,0.7c1.9,2.9,2.9,4.9,4.3,6.7c9.2,11.8,18.6,23.5,27.5,35.5c3.6,4.8,7.6,6.5,13.5,6.5
	c23.6-0.3,47.2-0.1,70.9-0.1C2294.7,580.9,2297.6,580.5,2301.5,580.2L2301.5,580.2z M1969.6,269.8c10.2,13.1,19.3,24.5,27.9,36.2
	c3.3,4.5,6.9,6.2,12.5,6.1c35.6-0.2,71.2-0.1,106.8-0.1c2.1,0,4.2-0.5,7.8-0.9c-9.6-12.4-18.6-23.4-27-34.9c-3.8-5.2-7.9-7-14.2-6.9
	c-34.6,0.3-69.2,0.1-103.8,0.1C1977.1,269.3,1974.5,269.5,1969.6,269.8L1969.6,269.8z M1770.4,31.6c12.4,11.8,23.7,22.9,35.5,33.5
	c2.1,1.9,6,2.6,9.1,2.7c37.6,0.2,75.1,0.1,112.7,0.1c1.8,0,3.6-0.6,6.7-1.1c-7.9-10.2-15.2-19.2-21.9-28.6
	c-3.8-5.4-8.2-7.5-14.9-7.4c-39.2,0.3-78.4,0.1-117.7,0.2C1777,30.9,1774.1,31.3,1770.4,31.6L1770.4,31.6z M2075.8,248.1
	c-9.9-12.7-18.7-23.5-26.9-34.7c-3.4-4.6-7.1-6-12.6-6c-35.6,0.2-71.2,0.1-106.8,0.1c-2.1,0-4.2,0.5-7.7,0.9
	c9.2,11.9,17.8,22.4,25.8,33.4c3.7,5.1,7.8,7.1,14.2,7c34.6-0.3,69.2-0.1,103.8-0.2C2068.2,248.7,2070.8,248.4,2075.8,248.1
	L2075.8,248.1z M1876.2,147.6c0.6,1.9,0.6,3.2,1.3,4c8.3,10.8,16.8,21.5,25,32.3c2.6,3.5,6,3.6,9.7,3.6c35.9,0,71.8,0,107.8-0.1
	c2,0,4.1-0.7,7.4-1.3c-9-11.6-17.3-21.9-25.1-32.6c-3.3-4.5-7-6.1-12.5-6.1c-28.6,0.2-57.2,0.1-85.8,0.1
	C1895,147.6,1886,147.6,1876.2,147.6L1876.2,147.6z M1828.9,89.1c1.6,2.6,2.4,4.3,3.5,5.7c6.8,8.6,13.9,17,20.4,25.9
	c3.3,4.6,7.2,6,12.7,5.9c35.3-0.2,70.6-0.1,105.9-0.1c2.4,0,4.9-0.5,8.8-1c-8.4-10.9-16.2-20.3-23.3-30.3c-3.7-5.2-7.9-7-14.2-6.9
	c-34.6,0.3-69.3,0.1-103.9,0.2C1835.9,88.5,1833,88.8,1828.9,89.1L1828.9,89.1z M1758.2,578.5l0.7,1.9h67.3
	c-7-6.9-13.5-12.5-19-18.9c-5.7-6.7-10.4-14.1-16.3-22.3C1783.5,556.1,1772.3,568.5,1758.2,578.5L1758.2,578.5z M2298.6,62
	c8-9.8,16.2-19.9,24.9-30.4h-54.2C2279.6,42.2,2289.1,52.1,2298.6,62L2298.6,62z"/>
<path d="M469.9,0c6.6,0.7,13.1,1.6,19.7,2c45.7,3.1,90.7,9.8,133.7,26.1c17.5,6.6,34.1,15.1,49.3,26.1c35.1,25.5,53.8,60,56.6,103.1
	c1.1,17.4-0.4,34.6-4.5,51.6c-8.6,35.7-28.8,63.2-59.3,83.3c-27.5,18-58.2,27.5-90.2,33.4c-27.3,5-54.9,6.5-82.5,6.5
	c-59.6,0-119.3,0-178.9,0c-3.9,0-7.9,0-12.2,0c-0.5,2.7-1.2,4.6-1.2,6.5c0.4,51.9,0.5,103.9,1.4,155.8c0.2,10.8,2.5,21.8,5.2,32.4
	c5.9,23.1,21,38,43.6,45.3c17.3,5.6,35.1,7.4,53.2,7.5c5.6,0,11.2,0,17.4,0v30.2c-2.5,0.3-5,0.8-7.6,0.8c-134.6,0-269.2,0-403.8,0
	c-3.3,0-6.6-0.8-9.8-1.2c0-10,0-20,0-30c8.6,0,17.3,0.3,25.9,0.1c16.7-0.3,33.2-2.2,49.1-7.6c20.5-7,33.6-20.8,39.4-41.6
	c4.4-15.9,5.6-32.1,5.6-48.4c0-118.9,0.1-237.7-0.1-356.6c0-11-0.7-22-2.1-32.8c-4-33.1-19.5-49.7-52.2-57.1
	c-17.4-3.9-35-4-52.7-4.1c-2.8,0-5.7,0-9,0V0C159.3,0,314.6,0,469.9,0z M300.9,303.2c3.9,0.2,7.1,0.5,10.3,0.5
	c19.7,0,39.3,0.5,59-0.1c13.6-0.5,27.4-1.3,40.7-4c43.9-8.9,76.9-32.6,94.8-74.5c25.6-59.9,7.7-121.7-30.5-162.1
	c-21-22.2-47-33.1-77.7-32.9c-28.6,0.1-57.3-0.2-86-0.2c-3.5,0-7,0.3-10.7,0.5L300.9,303.2L300.9,303.2z M280.3,579
	c-13.8-13.2-21.8-29.4-27.2-46.7H142.9c-4.1,17.9-11.6,33.8-25.2,47.1C130.1,581.8,271.9,581.4,280.3,579L280.3,579z M672.5,148.3
	H545.1v38.6h126.4C674.7,176.9,675.1,160.1,672.5,148.3L672.5,148.3z M526.6,248.1c3.1,0.3,5.7,0.6,8.2,0.7c7,0.1,14,0,21,0
	c27.3,0,54.6,0.1,81.9-0.1c3.4,0,8.1-0.5,10-2.7c9.5-10.8,15.9-23.4,20-37.9H541.3C536.4,221.5,531.6,234.5,526.6,248.1L526.6,248.1
	z M148.2,510.8h99.6c-0.8-15.9-1.6-31-2.4-46.1h-97.3V510.8z M666.8,126c-3.4-11.7-10.2-22.4-19.4-32.1c-3.7-3.9-7.5-5.7-13-5.6
	c-32.6,0.2-65.1,0.1-97.7,0.2c-2.5,0-4.9,0.6-7.8,0.9c4.4,12.7,8.5,24.5,12.8,36.7L666.8,126L666.8,126z M245.8,398.2h-96.3
	c-2.1,12.5-1.6,37.9,0.7,44.7c18.2,1.9,88.4,1,95.6-1.2V398.2L245.8,398.2z M148.9,333.2v42.3c10.2,2.4,89.1,2.1,96.7-0.3v-42.1
	H148.9z M122.5,31.5c7,12.1,13.6,23.7,20.5,35.7c16.8,1.8,95.6,1,102.4-1.1V31.5H122.5z M244.9,311.4c2-11.8,1.6-34.7-0.6-41.5
	c-19.2-1.7-87.8-1-95.3,1.1v40.4L244.9,311.4L244.9,311.4z M245.5,208.3h-96.6v39.8h96.6V208.3z M148.7,186.2
	c11.3,2.3,89.7,1.9,96.6-0.4v-37.5h-96.6V186.2z M148.6,125.4c12.8,2.2,90,1.6,96.8-0.6V89.6c-12.8-2.1-91.8-1.6-99,0.6
	C147.1,101.7,147.8,113.2,148.6,125.4L148.6,125.4z M619,272.1c-0.1-0.8-0.2-1.5-0.3-2.2c-1.5-0.2-3-0.5-4.6-0.5
	c-31.9,0-63.8,0.1-95.8-0.1c-4.5,0-7.1,1.9-10.1,4.9c-8.6,8.7-17.7,17-26.6,25.4c-1,1-2,2-4.4,4.5C528.2,303.1,576,298.1,619,272.1
	L619,272.1z M610.2,67.4c-25.1-17.9-101-35.4-122.8-33.4c7.8,9.1,16,17.8,23,27.2c3.9,5.2,8,6.8,14.2,6.8
	c24.9-0.3,49.9-0.1,74.8-0.1C602.3,67.8,605.2,67.6,610.2,67.4L610.2,67.4z"/>
<path d="M1373.6,0v28.6c-7.1,0.4-13,0.3-18.8,1.1c-13.2,1.8-26.6,3-39.3,6.5c-27.6,7.7-44.8,26.2-52,54.1
	c-4.5,17.5-5.9,35.5-5.9,53.5c-0.1,110.2-0.1,220.4,0,330.6c0,16.7,1.4,33.2,5.7,49.5c6.4,24.5,21.8,40.6,45.9,48.3
	c15.7,5,31.9,6.7,48.2,7.3c4.9,0.2,9.8,0,15.1,0v30.3H952.4c-0.9-9.6-0.3-19.1-0.3-29.7c4-0.2,7.5-0.3,11-0.4
	c19.3-0.6,38.6-1.2,57.9-2c3.6-0.2,7.2-1,10.8-1.8c25.9-5.6,38.4-18.9,41.8-45.4c1.3-9.9,2-19.9,2.1-29.8
	c0.1-128.9,0.2-257.7-0.1-386.6c0-13.2-1.5-26.6-3.9-39.6c-3.7-20.1-16-33.6-36-38.6c-11.9-3-24.1-5-36.3-5.8
	c-15.2-1-30.5-0.2-47-0.2C952.1,19,951.9,9.5,951.7,0C1092.3,0,1233,0,1373.6,0L1373.6,0z M1102.2,532.3
	c-2.6,17.6-6.8,33.7-18.6,47.4c12.5,2.1,146.1,1.7,154.7-0.5c-14-13.1-22.1-29.3-27.9-46.8H1102.2z M1235.1,32.2
	c-6.6-1.8-139.9-2-148.6-0.1c5.1,11.6,10.2,23.3,15.7,35.7c3,0,6.6,0,10.3,0c24.7,0,49.3,0,74,0c7.3,0,14.7,0,22,0
	c3.1,0,5.6-0.4,7.5-3.6C1222.1,53.4,1228.7,42.7,1235.1,32.2L1235.1,32.2z M1104.2,510.9h100.9c-0.8-15.9-1.5-31.2-2.3-46.3
	c-19.9-2-91.3-1.1-98.6,1.1V510.9z M1203.1,398.8c-12.8-2.2-91.9-1.6-98.4,0.5v43.5h98.4V398.8z M1203.2,334
	c-12.3-2.4-91.8-1.8-98.7,0.5v41.2c11.8,2.4,91.6,1.9,98.7-0.7V334z M1202.9,311.5V270h-98.4v41.5H1202.9z M1203.1,148.3H1105
	c-2,12.7-1.6,31.9,0.8,38.6c18.3,1.9,90.2,1.1,97.4-1.2L1203.1,148.3L1203.1,148.3z M1202.9,208.1h-97.8c-2,10.1-1.8,32.3,0.2,39.7
	c12.6,1.9,90.2,1.3,97.6-0.9V208.1z M1104.5,125.3c11.7,2.2,91.5,1.7,98.5-0.5c1.3-11.8,2.6-23.5,4.1-36.3
	c-34.8-0.1-68.9-0.1-103.4,0c0,11.4,0,21.3,0,31.3C1103.8,121.7,1104.3,123.6,1104.5,125.3L1104.5,125.3z"/>
<path d="M2867.2,1181c-3.6-1.5-7.2-3.1-10.8-4.4c-33.2-11.4-50.9-41.9-48.3-72.3c2.8-33.8,27.9-60.1,60.5-64.7
	c35.7-5,70.2,18.4,78.3,53.2c8.5,36.5-11.6,72.5-46.7,83.9c-3.7,1.2-7.3,2.8-10.9,4.3L2867.2,1181L2867.2,1181z M2830.7,1110
	c0.1,21.9,11.9,40.1,30.7,47c33.1,12.2,66.9-13.6,64.9-49.4c-1.6-28.2-21-48.2-47.1-48.5C2851.1,1058.7,2830.6,1080.2,2830.7,1110
	L2830.7,1110z"/>
<path d="M2375.3,1181c-3.3-1.3-6.6-2.9-10-4c-32.2-10.2-52.1-39.5-49.7-73.2c2.3-32.1,27.7-59.1,60.1-64.1
	c35.7-5.4,70.9,18.5,79.1,53.7c8.3,35.8-11.8,71.6-46.6,83.2c-3.7,1.2-7.2,2.9-10.8,4.4L2375.3,1181L2375.3,1181z M2433.8,1109.4
	c-0.1-27.6-19.4-49-45.3-50.3c-28.9-1.4-52.3,21-50.3,54c1.2,20.6,11,36.3,30.9,43.8C2401.5,1169.1,2433.9,1145.1,2433.8,1109.4
	L2433.8,1109.4z"/>
<path d="M1413.6,1181c-3.7-1.4-7.4-2.9-11.1-4.2c-10.6-3.7-19.7-9.6-27.9-19.1c4.7-4.3,9.2-8.4,14-12.9c2.4,1.8,4.6,3.2,6.6,4.8
	c10.9,8.3,23.1,11.5,36.6,9.7c1-0.1,2-0.2,3-0.4c9.7-2,16.4-7.4,17.4-14.3c1.4-9.6-4.5-15-11.9-18.8c-8.9-4.5-18.2-8.1-27.2-12.5
	c-6.6-3.2-13.3-6.3-19.1-10.6c-20.3-15.2-18.7-42.8,3-55.8c19.8-11.9,52.7-11.4,71.9,10c-4.5,4.3-9,8.5-12.8,12.1
	c-7.7-3.2-14.2-6.5-21.1-8.7c-7.6-2.5-15.2-1.3-22.4,1.8c-11.3,4.8-13.1,16.1-3.4,23.6c5.4,4.2,12,7,18.3,10.1
	c9.8,4.8,20.2,8.8,29.7,14.1c10.8,6,17.2,15.5,18.2,28.2c1.3,17.2-6.7,30.2-22.9,37c-5.5,2.3-11.2,4.1-16.8,6.1L1413.6,1181
	L1413.6,1181z"/>
<path d="M485.9,1181c-7.3-3-14.5-6.1-23.1-9.7c3.4-5.8,6.4-10.8,9.3-15.8c5.8,1.4,11.1,3.3,16.6,3.9c9,1.1,12.3-1.4,14.1-10.2
	c0.8-3.9,0.9-7.9,1-11.9c0.1-27.6,0-55.3,0-82.9c0-3.6,0-7.3,0-11.6h20.9c0.2,3.1,0.7,6,0.7,8.9c0,30.6,0.1,61.3,0,91.9
	c0,4.3-0.5,8.6-1.2,12.9c-1.5,9.9-6.7,17.2-16.2,21.1c-2.1,0.9-4,2.3-6,3.4H485.9L485.9,1181z"/>
<path d="M928,1042.6h19.2c10,44.3,20,88.3,30.2,133.3h-20c-6.6-29.2-13.4-58.9-20.1-88.5c-0.6-0.1-0.9-0.2-1.1-0.2
	c-0.3,0-0.8,0.2-0.9,0.3c-9.3,29.4-18.6,58.9-28,88.7h-17.9c-8.8-30.1-17.6-60.5-26.5-90.9c-0.8,0-1.7,0.1-2.5,0.1
	c-6.9,30.2-13.8,60.4-20.8,90.9h-19.8c10.2-44.8,20.3-88.9,30.5-133.6h20.2c9.1,30.7,18.3,61.5,27.5,92.2
	C909.9,1104.6,918.1,1073.4,928,1042.6L928,1042.6z"/>
<path d="M1647.8,941.4h-20.1c-6.8-29.5-13.5-59.2-20.3-88.9c-11.9,28.9-19.4,59-29.4,88.9h-18.3c-8.8-30-17.7-60.4-26.6-90.8
	c-0.8,0-1.5-0.1-2.2-0.1c-6.9,30.2-13.8,60.5-20.7,91h-19.8c10.2-44.8,20.2-88.7,30.4-133.1h20.3c9,30.4,18.1,61.2,27.2,92.1
	c12.1-30,20.1-61.1,30.3-92.1h19.2C1627.5,852.1,1637.5,896.3,1647.8,941.4L1647.8,941.4z"/>
<path d="M2514.7,1076.5v99.6h-20.4v-133.8c6.6,0,13.2-0.7,19.6,0.3c3,0.5,5.9,3.9,8,6.7c22.5,28.5,44.8,57.1,67.1,85.6
	c1.9,2.5,4.1,4.8,8,6.6v-98.7h19.7v133.9c-6.1,0-11.7-0.1-17.3,0c-4.6,0.2-6.1-3.5-8.3-6.2c-19.9-25.4-39.8-50.8-59.8-76.2
	c-4.8-6.2-9.7-12.3-14.6-18.4L2514.7,1076.5L2514.7,1076.5z"/>
<path d="M2987.1,1042.2c6.7,0,13-0.7,19.1,0.3c3,0.5,5.9,3.8,8.1,6.5c22.5,28.5,44.8,57.1,67.1,85.6c1.9,2.5,4.1,4.8,7.7,8.9V1043
	h20.5v133.7c-4.1,0-7.7-0.4-11.2,0.1c-7,0.9-11.6-1.8-15.9-7.5c-22.3-29-45-57.7-67.6-86.5c-2-2.5-4.1-4.8-7.9-9.2V1176h-20
	L2987.1,1042.2L2987.1,1042.2z"/>
<path d="M1155.8,1076.7v99.3h-19.6v-133.8c6.3,0,12.6-0.7,18.7,0.3c3,0.5,6.1,3.6,8.3,6.3c20.3,25.6,40.3,51.3,60.5,76.9
	c4.3,5.4,8.6,10.8,13.8,17.3c2.8-9.4,1.2-17.6,1.5-25.7c0.3-8.3,0.1-16.6,0.1-25v-24c0-8.3,0-16.5,0-25.5h19.9v132.4
	c-1,0.6-1.6,1.1-2.2,1.2c-12.3,0.8-22.3-3.7-29.8-13.2c-20.7-26.5-41.4-52.9-62.2-79.4c-2.2-2.8-4.4-5.5-6.7-8.2
	C1157.3,1075.9,1156.6,1076.3,1155.8,1076.7L1155.8,1076.7z"/>
<path d="M2359.1,906.9v-98.7c3.1-0.2,5-0.4,6.9-0.5c3.9-0.1,7.9,0,12.6,0v134.2c-6.2,0-12.2,0.7-17.9-0.3c-3-0.5-6.1-3.7-8.2-6.3
	c-23-29-45.8-58.1-68.6-87.1c-1.9-2.5-4.1-4.8-8.1-6.6v99.7c-4,0.3-6.9,0.7-9.8,0.8c-3,0.1-5.9,0-8.6,0c-2.3-7.7-3-118.8-0.9-134.3
	c6,0,12.3-0.7,18.4,0.3c3,0.5,6.2,3.4,8.3,6.1c21.1,26.6,42,53.4,62.9,80.1c3.5,4.4,7,8.8,10.5,13.1L2359.1,906.9L2359.1,906.9z"/>
<path d="M1395.4,804c39.2,0,70.3,31.2,70.3,70.5c0,39.3-31.2,70.4-70.4,70.3c-39.3-0.2-70.8-31.6-70.6-70.5
	C1324.8,835.4,1356.3,804.1,1395.4,804L1395.4,804z M1347.5,874c-0.2,23,12.6,42.3,32.8,48.4c35,10.7,65.9-15.9,62.8-52.6
	c-1.7-20.4-11.7-36-31.7-43.1C1379.1,815.2,1347.7,838.6,1347.5,874L1347.5,874z"/>
<path d="M2659.8,1176.1v-132.2c0.8-0.6,1.4-1.3,1.9-1.2c18.9,0.2,38.1-1,56.8,1c30.2,3.3,52.1,27.4,54.9,57.2
	c3.8,40.9-18.9,70.2-59.8,74.8C2696.2,1177.7,2678.5,1176.1,2659.8,1176.1L2659.8,1176.1z M2681.7,1156.8c10.4,0,19.8,0.7,28.9-0.2
	c21.5-2.1,35.7-15,39.8-35.9c2.2-11,1.3-21.8-2.8-32.3c-4-10.1-10.8-17.5-20.7-21.9c-14.5-6.6-29.7-5.2-45.2-4.3V1156.8z"/>
<path d="M1659.5,1116.8v59.2h-21v-132.9c2.1-0.3,4.3-1,6.5-1c17.3-0.1,34.7-0.1,52,0c14.9,0,26.5,6.2,33.9,19.2
	c10.5,18.3,3.2,41.7-15.8,51.2c-2.7,1.3-5.5,2.3-9.6,4.1c14.4,19.8,29.4,38.7,44.9,59.9c-8.7,0.1-15.8,0.6-22.8-0.1
	c-2.3-0.2-4.8-3.3-6.5-5.5c-11.5-15.1-23.1-30.1-33.9-45.7c-4.7-6.8-10-10.1-18.2-8.8C1666.4,1116.7,1663.7,1116.6,1659.5,1116.8
	L1659.5,1116.8z M1660.1,1061.2v37.2c12.1,0,23.6,0.1,35.1-0.1c1.9,0,3.9-0.7,5.8-1.4c7.6-2.9,12.7-11.1,12-18.8
	c-0.7-8.4-7.3-16.3-15.8-16.8C1685.1,1060.7,1672.9,1061.2,1660.1,1061.2L1660.1,1061.2z"/>
<path d="M746.6,1116.6c15.1,20,29.6,39.2,45.3,60.1c-8.8,0-15.4,0.5-21.8-0.3c-2.7-0.3-5.6-3.1-7.4-5.5
	c-11.5-15.1-23.3-30-33.9-45.7c-5-7.4-10.8-10.1-19.1-9c-2.3,0.3-4.6,0.3-8.4,0.5c-0.2,19.8-0.4,39.5-0.6,59.6H681
	c-2.3-7.3-3-117-1-132.9c1-0.3,2.1-1.1,3.3-1.1c19.6-0.1,39.3-0.9,58.9,0.2c23.7,1.3,38.9,22.8,33.6,45.7
	c-2.6,11.1-9.2,19-19.2,24.2C754,1113.8,751.1,1114.7,746.6,1116.6L746.6,1116.6z M702,1098.5c5.3,0,10.5,0.1,15.7,0
	c7-0.1,14,0.3,20.9-0.7c10-1.5,16.3-10.2,15.4-20.1c-0.8-9.3-8.1-16.2-18-16.7c-5.3-0.3-10.6-0.1-16-0.1c-6.2,0-12.4,0.1-19.1,0.2
	c0,11.3,0,21.2,0,31.2C701,1094,701.5,1095.6,702,1098.5L702,1098.5z"/>
<path d="M1181.7,808.2h20.6v51.4h67v-51.4h19.9c2,7.3,2.4,121.6,0.4,133.1h-20.1v-59.7c-7.8-2.6-48.1-3.3-66.4-1.4
	c-2,19.8,0.3,40-1.3,60.9h-20.1L1181.7,808.2L1181.7,808.2z"/>
<path d="M2421.9,808.2h20.6c1.1,9,0.4,18.2,0.5,27.3s0,18.3,0,29.9c4-4.2,6.3-6.5,8.4-8.9c12.3-14,24.6-28,36.6-42.3
	c4-4.8,8-7.4,14.4-6.7c4.9,0.5,10,0.1,14.7,0.1c0.4,0.6,0.6,0.9,0.7,1.2c0.1,0.3,0.2,0.7,0.1,0.9c-17.4,20.1-34.9,40.1-52.8,60.7
	c18,23.1,35.9,46.2,54.9,70.7c-9.8,1.5-17.9,1.4-25.9,0.3c-2.4-0.3-4.6-3.5-6.3-5.8c-12-15.9-23.9-32-35.9-48
	c-2.2-2.9-4.4-5.7-7.5-9.6c-2.7,7.7-1.2,14.5-1.4,21.1c-0.3,7-0.1,14-0.1,21s0,13.8,0,21.3h-21.2L2421.9,808.2L2421.9,808.2z"/>
<path d="M1928.7,822.7c-4.8,4.5-9.2,8.6-13.8,12.9c-9.9-7.3-20.4-12.1-32.6-10.3c-4.2,0.6-8.6,1.7-12.2,3.7c-8.9,5-10.1,15-2.1,21.4
	c5.6,4.5,12.4,7.6,18.9,10.8c9.5,4.7,19.5,8.5,28.9,13.5c9.8,5.2,16.6,13.4,18.7,24.6c2.7,14.6-1,27.1-13.2,36.3
	c-24,18-67,12-86.1-12.1c0.7-0.9,1.4-2.1,2.3-3c3.4-3.2,6.8-6.3,10.9-9.9c3.1,2.2,5.9,4.3,8.8,6.3c12.6,8.5,26.2,11.2,40.8,6.7
	c7-2.1,13-5.6,14.1-13.8c1.1-8.1-3.3-13.5-9.8-17c-7.9-4.3-16.2-7.7-24.2-11.6c-7.2-3.5-14.5-6.7-21.3-10.8
	c-11.7-7.2-17.8-17.9-16.7-31.8c1-13.6,9-22.5,20.9-28.2C1879.1,801.6,1909.4,801.5,1928.7,822.7L1928.7,822.7z"/>
<path d="M1808.8,941.5h-22.3c-4.5-11.4-8.9-22.4-13.5-34c-17.9,0-35.5,0.1-53.1,0c-4.1,0-5.8,2.1-7.1,5.6
	c-2.8,7.8-6.2,15.5-8.9,23.3c-1.4,4-3.6,6-8,5.8c-4.9-0.2-9.9,0-16.7,0c18.7-45.6,36.7-89.7,54.8-134h21
	C1772.6,852.1,1790.4,896,1808.8,941.5L1808.8,941.5z M1745,833.5c-7.1,12.2-20.6,48.5-20.8,56c7,0,13.9,0,20.8,0
	c6.7,0,13.5-0.2,21.4-0.3C1759,869.8,1752.2,852.1,1745,833.5L1745,833.5z"/>
<path d="M2075.1,881.7v59.6h-20.8V808.7c1.8-0.3,3.3-0.9,4.9-0.9c19-0.1,38-0.4,56.9,0c25.8,0.5,42.7,24.3,35.1,48.6
	c-4.6,14.5-17.1,24.6-32.5,25.2c-10.3,0.4-20.6,0.1-31,0.2C2084.1,881.7,2080.5,881.7,2075.1,881.7L2075.1,881.7z M2076.1,826.9
	v36.8c13.2,0,25.8,0.5,38.3-0.2c9.4-0.5,16.1-9,16.1-18.5c0-9.1-6.3-17.4-15.3-17.9C2102.3,826.3,2089.4,826.9,2076.1,826.9
	L2076.1,826.9z"/>
<path d="M564.8,1042.8H639v18.6h-52.5v32.9h52.2v18.2c-8.5,2.7-17.5,1-26.3,1.3c-8.6,0.3-17.1,0.1-26.2,0.1v43h52.5v19.1h-74
	L564.8,1042.8L564.8,1042.8z"/>
<path d="M1976.7,1156.8v18.3c-7.4,2-62,2.4-74.2,0.5v-132.9h74.1v18.1c-17.3,1.8-34.5-0.4-52.2,1.3c-1.9,10.4-0.7,20.6-0.9,31.8
	c17.6,1.8,34.8-0.2,52.7,1.2v18.6H1924v42.9H1976.7L1976.7,1156.8z"/>
<path d="M1783.7,1042.7h73.4v18.3c-17.1,1.3-34.3-0.3-51.9,1v32.4h51.6v18.8c-16.8,1.8-34-0.3-51.6,1.2v42.5h51.8v19.2h-73.3
	L1783.7,1042.7L1783.7,1042.7z"/>
<path d="M1044.8,1095.9c2.4-3.4,4.3-6,6-8.7c7.9-12.3,16.2-24.4,23.6-37.1c3.7-6.3,8.2-9.1,15.3-8c3.2,0.5,6.4,0.4,10.9,0.7
	c-2.3,4-3.8,6.8-5.6,9.6c-11.7,18.6-23.4,37.2-35.3,55.6c-3.2,5-4.7,9.9-4.5,15.9c0.3,14,0.1,28,0.1,41.9v10.4h-21.4
	c0-7.7,0.1-14.9,0-22.1c-0.1-13,2.2-26.6-1.2-38.7c-3.3-11.7-12.4-21.8-19.1-32.5c-6.6-10.8-13.4-21.5-20-32.2
	c-1.3-2.2-2.4-4.5-4.5-8.3c7.2,0,13.1-0.6,18.9,0.3c2.7,0.4,5.5,3.4,7.1,6c8.1,12.6,15.8,25.4,23.7,38.1
	C1040.5,1089.4,1042.4,1092.1,1044.8,1095.9L1044.8,1095.9z"/>
<path d="M2052,1061.6h-35.2v-17.7c7.6-2.1,81.5-2.5,92-0.4v17.7c-11.5,0.3-22.9,0.7-35.2,1v114H2052L2052,1061.6L2052,1061.6z"/>
<path d="M1540.2,1061.8h-35.4v-19h92c0.3,2.5,0.6,4.4,0.6,6.4c0.1,3.6,0,7.2,0,12.3h-35.8V1176h-21.5L1540.2,1061.8L1540.2,1061.8z"
	/>
<path d="M1088.1,827.3h-35.3v-19.4c30.2-0.4,60.6-0.1,91.8-0.2v19h-34.4c-1.1,10.4-0.4,19.9-0.6,29.4c-0.1,9.3,0,18.6,0,27.9v57.3
	H1088L1088.1,827.3L1088.1,827.3z"/>
<path d="M2242.3,1157.2h48.2v18.8h-68.9v-133.2h20.6L2242.3,1157.2L2242.3,1157.2z"/>
<path d="M2192.9,808.2h19.1c2.1,7.4,2.6,119.4,0.6,133.1h-19.8V808.2z"/>
</svg>
