<?xml version="1.0" encoding="utf-8"?>
<!-- Generator: Adobe Illustrator 26.5.0, SVG Export Plug-In . SVG Version: 6.00 Build 0)  -->
<svg version="1.1" id="Layer_1" xmlns="http://www.w3.org/2000/svg" xmlns:xlink="http://www.w3.org/1999/xlink" x="0px" y="0px"
	 viewBox="0 0 216.2 136.8" style="enable-background:new 0 0 216.2 136.8;" xml:space="preserve">
<path d="M0.1,0.1c2.3,0,4.6,0,6.8,0c14.1,0,28.2-0.1,42.4,0c9.4,0.1,18.6,1.6,27.2,5.7c12,5.8,18.1,15.3,18.3,28.7
	c0.1,7.5-1.5,14.4-6,20.5c-4.2,5.8-10,9.4-16.6,11.9c-6.7,2.5-13.7,3.7-20.9,3.9c-2.2,0.1-4.5,0-6.7,0c0,0.1,0,0.2,0,0.3
	c1.5,0.3,3,0.5,4.5,0.8c9.8,1.9,18.7,5.6,26,12.5c4.9,4.6,8.8,10,11.9,16c4.2,8.2,8.2,16.6,12.2,24.9c0.7,1.4,1.4,2.8,2.2,4.1
	c2.9,4.8,6.7,6.6,12.4,6.2c0-0.4,0-0.8,0-1.2c0-41.8,0-83.6,0-125.4c0-0.7,0-1.4-0.1-2c-0.6-4.1-2.2-5.6-6.3-5.9
	c-1.5-0.1-3-0.1-4.6-0.1c-0.2,0-0.5-0.2-0.7-0.4c0.2-0.1,0.5-0.4,0.7-0.4c2.2,0,4.3,0,6.5,0c9.1,0,18.2,0,27.2,0c0.3,0,0.6,0,0.8,0
	c0.3,0.1,0.5,0.2,0.7,0.4c-0.2,0.1-0.5,0.4-0.7,0.4c-1.7,0.1-3.4,0.1-5,0.1c-0.3,0-0.6,0-0.8,0c-4.2,0.3-6.1,2.2-6.4,6.4
	c-0.1,1.3-0.1,2.6-0.1,3.9c0,19,0,38,0,57V70h67.6v-1.3c0-19.6,0-39.3,0-58.9c0-0.9-0.1-1.8-0.2-2.7c-0.5-4.1-2.2-5.7-6.3-5.9
	c-1.6-0.1-3.3-0.1-4.9-0.2c-0.3,0-0.6-0.3-0.9-0.4c0.3-0.1,0.6-0.3,0.9-0.3c11.4,0,22.7,0,34.1,0c0.3,0,0.6,0.2,0.9,0.3
	c-0.3,0.1-0.6,0.4-0.9,0.4c-2,0.1-4.1,0.1-6.1,0.4c-3.4,0.5-4.8,2.2-5.2,5.6c-0.1,0.6-0.1,1.3-0.1,1.9c0,39.7,0,79.5,0,119.2
	c0,5.6,1.7,7.4,7.2,7.8c1.4,0.1,2.9,0.1,4.3,0.1c0.7,0,0.8,0.3,0.8,0.9h-35.8c-0.3-0.8,0.2-0.8,0.8-0.9c1.7,0,3.4,0,5.1-0.1
	c4-0.3,5.6-1.9,6.1-5.8c0.1-0.9,0.2-1.8,0.2-2.7c0-18.3,0-36.6,0-54.8V71H125v1.5c0,17.7,0,35.4,0,53.1c0,1.3,0.1,2.6,0.1,3.8
	c0.3,4.2,2.2,6.1,6.4,6.4c2.1,0.1,4.2,0.1,6.4,0.1c0.7,0,1,0.2,0.9,0.9h-31.2c-0.1-0.1-0.3-0.2-0.4-0.2c-8.1-0.7-14.4-4.7-19.5-10.8
	c-4.4-5.4-7.5-11.6-10.5-17.8c-3.2-6.5-6.3-13.1-9.9-19.4c-5.7-10.2-14.7-15.8-26.3-17C35.2,71,29.3,71.1,23.5,71
	c-0.1,0-0.2,0.1-0.4,0.2v1.1c0,18.2,0,36.3,0,54.5c0,1.2,0.1,2.4,0.2,3.6c0.4,3.2,1.8,4.8,4.9,5.2c2.6,0.3,5.2,0.3,7.8,0.4
	c0.6,0,1.1,0,1,0.9c-12.3,0-24.6,0-37,0c0-0.3,0-0.6,0-1c2.4-0.1,4.8,0,7.1-0.3c2.6-0.4,3.9-2,4.3-4.6c0.2-1.1,0.3-2.1,0.3-3.2
	c0-39.2,0-78.4,0-117.6c0-1.2-0.1-2.5-0.2-3.7C11.3,3.8,10,1.9,7.3,1.5C5,1.1,2.5,1.2,0.1,1.1V0.1z M23.1,70c0.4,0,0.5,0.1,0.7,0.1
	c8.8,0,17.6,0.2,26.4-0.1c10.2-0.3,18.9-4.2,25.5-12.1c5.9-7.1,8.3-15.3,8-24.5c-0.2-6.1-1.6-11.9-5-17.1C74.1,9.3,67.4,5.2,59.5,3
	C54.8,1.7,50,1,45.1,1C40,1,34.9,0.9,29.9,1.1c-4.3,0.1-6,1.8-6.6,6c-0.1,0.8-0.1,1.6-0.1,2.4c0,19.7,0,39.5,0,59.2L23.1,70L23.1,70
	z"/>
</svg>
