<svg width="0" height="0" class="hidden">
  <symbol role="img" xmlns="http://www.w3.org/2000/svg" viewBox="0 0 24 24" id="adobeCC">
    <title>Adobe Creative Cloud icon</title>
    <path
      d="M14.782 3.153c-.231.02-.472.04-.703.07a8.453 8.453 0 0 0-2.832.834 8.951 8.951 0 0 0-2.46 1.777c-.03.04-.09.06-.141.05a7.44 7.44 0 0 0-1.496-.07 7.424 7.424 0 0 0-2.932.763c-1.768.884-3.013 2.26-3.736 4.108a7.089 7.089 0 0 0-.462 2.139c0 .05-.01.09-.02.13v.773c.02.201.05.392.07.593.1.813.332 1.596.703 2.33.824 1.646 2.089 2.851 3.786 3.594a7.127 7.127 0 0 0 2.45.593c.032 0 .06.004.086.01h8.576c.183-.017.362-.035.547-.06a8.344 8.344 0 0 0 2.811-.834 8.836 8.836 0 0 0 3.646-3.304 8.187 8.187 0 0 0 1.184-3.093c.05-.34.08-.692.121-1.034 0-.05.01-.09.02-.13v-.794c-.02-.23-.05-.452-.05-.662a8.345 8.345 0 0 0-.834-2.812 8.952 8.952 0 0 0-3.324-3.645 8.245 8.245 0 0 0-3.072-1.175c-.362-.06-.713-.09-1.075-.13-.05 0-.09-.01-.14-.02zm.369 1.693c2.126.005 3.93.826 5.395 2.455a6.93 6.93 0 0 1 1.616 3.323c.15.764.181 1.547.07 2.32-.19 1.346-.702 2.55-1.576 3.605a7.082 7.082 0 0 1-3.997 2.45 7.297 7.297 0 0 1-2.56.1c-1.095-.14-2.099-.501-3.003-1.154a5.2 5.2 0 0 1-.672-.573c-1.226-1.205-2.44-2.42-3.666-3.625-.301-.3-.321-.632-.18-.934a.822.822 0 0 1 .863-.472c.21.02.372.141.522.292 1.105 1.114 2.2 2.209 3.304 3.324a5.263 5.263 0 0 0 3.093 1.536c1.948.261 3.605-.341 4.92-1.798.713-.793 1.145-1.747 1.326-2.811.26-1.587-.11-3.013-1.095-4.268-.873-1.115-2.018-1.808-3.404-2.059-1.416-.25-2.751.02-3.966.794-.03.02-.1.03-.131.01a9.04 9.04 0 0 0-1.406-.854s-.01-.01-.02-.03a6.603 6.603 0 0 1 1.255-.823 6.646 6.646 0 0 1 2.641-.784 8.45 8.45 0 0 1 .67-.024zM7.546 7.509c1.455-.024 2.791.525 3.982 1.63.854.802 1.637 1.636 2.46 2.47.231.23.281.522.171.833-.11.311-.362.462-.683.512a.722.722 0 0 1-.632-.23c-.784-.784-1.567-1.557-2.34-2.35-.633-.653-1.386-1.025-2.27-1.186-1.958-.351-3.936.784-4.639 2.641-.904 2.36.522 5.031 2.982 5.594.482.11.995.11 1.497.1.14-.01.22.04.32.13.483.473.995.945 1.497 1.416.03.03.07.06.1.09-.06 0-.1.01-.14.01h-2.3a5.833 5.833 0 0 1-5.693-4.568c-.653-2.942 1.034-5.925 3.926-6.798a6.33 6.33 0 0 1 1.762-.294Z">
    </path>
  </symbol>
  <symbol xmlns="http://www.w3.org/2000/svg" viewBox="0 0 32 32" id="cisco">
    <path
      d="M21.776 24.229v-1.484l-0.031 0.016c-0.333 0.161-0.698 0.255-1.068 0.271-0.385 0.031-0.766-0.083-1.073-0.318-0.219-0.167-0.385-0.401-0.469-0.661-0.094-0.292-0.104-0.599-0.031-0.891 0.068-0.302 0.234-0.568 0.474-0.76 0.214-0.177 0.474-0.286 0.75-0.323 0.49-0.052 0.979 0.042 1.417 0.266l0.031 0.016v-1.49l-0.068-0.016c-0.438-0.141-0.896-0.198-1.349-0.177-0.417 0.010-0.828 0.104-1.203 0.276-0.385 0.177-0.724 0.432-0.984 0.76-0.833 1.052-0.859 2.531-0.057 3.604 0.396 0.505 0.948 0.865 1.568 1.010 0.656 0.161 1.344 0.135 1.984-0.068l0.109-0.031zM7.115 24.229v-1.484l-0.031 0.016c-0.333 0.161-0.693 0.255-1.068 0.271-0.385 0.031-0.766-0.083-1.073-0.318-0.219-0.167-0.38-0.401-0.469-0.661-0.094-0.286-0.104-0.599-0.031-0.891 0.068-0.302 0.234-0.568 0.474-0.76 0.214-0.177 0.474-0.286 0.75-0.323 0.49-0.052 0.979 0.042 1.417 0.266l0.031 0.016v-1.49l-0.068-0.016c-0.438-0.141-0.891-0.198-1.349-0.177-0.417 0.010-0.823 0.104-1.203 0.276-0.38 0.177-0.719 0.432-0.984 0.76-0.833 1.052-0.854 2.531-0.057 3.604 0.391 0.505 0.948 0.865 1.568 1.010 0.656 0.161 1.339 0.135 1.984-0.068l0.109-0.031zM12.349 23l-0.005 1.276 0.089 0.016c0.297 0.052 0.589 0.089 0.885 0.115 0.26 0.021 0.526 0.026 0.786 0.016 0.25-0.021 0.495-0.068 0.734-0.141 0.281-0.078 0.536-0.219 0.76-0.406 0.198-0.172 0.354-0.391 0.443-0.635 0.161-0.417 0.156-0.87-0.010-1.281-0.083-0.214-0.219-0.406-0.396-0.552-0.167-0.151-0.37-0.271-0.583-0.339l-0.964-0.359c-0.115-0.047-0.208-0.141-0.26-0.25-0.042-0.094-0.042-0.203 0.010-0.292 0.047-0.083 0.12-0.146 0.203-0.193 0.109-0.052 0.224-0.083 0.344-0.099 0.203-0.026 0.411-0.026 0.615 0.010 0.24 0.026 0.474 0.068 0.708 0.125l0.052 0.010v-1.177l-0.094-0.021c-0.24-0.052-0.479-0.099-0.724-0.125-0.313-0.042-0.635-0.047-0.953-0.005-0.396 0.036-0.776 0.188-1.094 0.438-0.214 0.172-0.375 0.391-0.469 0.646-0.135 0.385-0.135 0.813 0 1.198 0.073 0.198 0.188 0.37 0.339 0.51 0.13 0.125 0.276 0.229 0.438 0.313 0.208 0.115 0.432 0.198 0.661 0.26 0.073 0.026 0.151 0.047 0.224 0.073l0.115 0.042 0.031 0.016c0.115 0.036 0.219 0.104 0.302 0.182 0.063 0.057 0.109 0.125 0.135 0.203 0.021 0.073 0.021 0.146 0 0.214-0.036 0.115-0.115 0.208-0.219 0.266-0.115 0.057-0.24 0.099-0.37 0.115-0.188 0.031-0.375 0.036-0.568 0.026-0.25-0.016-0.495-0.052-0.745-0.099-0.125-0.026-0.255-0.057-0.38-0.089zM9.047 24.323h1.401v-5.552h-1.401zM25.26 20.411c0.63-0.51 1.547-0.417 2.057 0.208s0.417 1.547-0.208 2.057l-0.026 0.016c-1.516 1.167-3.292-1.063-1.823-2.281zM23.229 21.547c0.031 1.854 1.75 3.214 3.557 2.813 2.573-0.49 3.182-3.901 0.932-5.25-1.938-1.198-4.443 0.161-4.49 2.438zM30.615 14.302c0.036 0.885 1.349 0.885 1.385 0v-1.536c-0.036-0.885-1.349-0.885-1.385 0v1.536zM26.823 14.302c0.063 0.859 1.323 0.859 1.385 0v-3.448c-0.052-0.87-1.328-0.87-1.385 0v3.448zM22.974 15.693c0.068 0.859 1.323 0.859 1.385 0v-7.464c-0.036-0.885-1.344-0.885-1.385 0v7.464zM19.193 14.302c0.052 0.87 1.328 0.87 1.385 0v-3.448c-0.042-0.885-1.349-0.885-1.385 0v3.448zM15.323 14.302c0.083 0.839 1.307 0.839 1.385 0v-1.536c-0.036-0.885-1.344-0.885-1.385 0v1.536zM11.5 14.302c0.036 0.885 1.344 0.885 1.385 0v-3.448c-0.042-0.885-1.349-0.885-1.385 0v3.448zM7.651 15.693c0.036 0.885 1.344 0.885 1.385 0v-7.464c-0.042-0.885-1.349-0.885-1.385 0v7.464zM3.833 14.302c0.078 0.849 1.313 0.849 1.385 0v-3.448c-0.036-0.885-1.344-0.885-1.38 0v3.448zM0 14.302c0.063 0.859 1.318 0.859 1.385 0v-1.536c-0.036-0.885-1.349-0.885-1.385 0v1.536z">
    </path>
  </symbol>
  <symbol version="1.1" id="css" xmlns="http://www.w3.org/2000/svg" xmlns:xlink="http://www.w3.org/1999/xlink" x="0px"
    y="0px" xml:space="preserve" viewBox="0 0 48 48">
    <g>
      <g>
        <path d="M47.987,21.938c-0.006-0.091-0.023-0.178-0.053-0.264c-0.011-0.032-0.019-0.063-0.033-0.094
			c-0.048-0.104-0.109-0.202-0.193-0.285c-0.001-0.001-0.001-0.001-0.001-0.001L42,15.586V10c0-0.022-0.011-0.041-0.013-0.063
			c-0.006-0.088-0.023-0.173-0.051-0.257c-0.011-0.032-0.019-0.063-0.034-0.094c-0.049-0.106-0.11-0.207-0.196-0.293l-9-9
			c-0.086-0.086-0.187-0.148-0.294-0.196c-0.03-0.014-0.06-0.022-0.091-0.032c-0.085-0.03-0.172-0.047-0.263-0.052
			C32.039,0.01,32.021,0,32,0H7C6.448,0,6,0.448,6,1v14.586l-5.707,5.707c0,0-0.001,0.001-0.002,0.002
			c-0.084,0.084-0.144,0.182-0.192,0.285c-0.014,0.031-0.022,0.062-0.033,0.094c-0.03,0.086-0.048,0.173-0.053,0.264
			C0.011,21.96,0,21.978,0,22v19c0,0.552,0.448,1,1,1h5v5c0,0.552,0.448,1,1,1h34c0.552,0,1-0.448,1-1v-5h5c0.552,0,1-0.448,1-1V22
			C48,21.978,47.989,21.96,47.987,21.938z M44.586,21H42v-2.586L44.586,21z M38.586,9H33V3.414L38.586,9z M8,2h23v8
			c0,0.552,0.448,1,1,1h8v5v5H8v-5V2z M6,18.414V21H3.414L6,18.414z M40,46H8v-4h32V46z M46,40H2V23h5h34h5V40z"></path>
        <path d="M23.813,27.885c0.147-0.136,0.312-0.235,0.493-0.298c0.181-0.062,0.368-0.093,0.561-0.093
			c0.669,0,1.224,0.266,1.666,0.799l1.122-1.462c-0.329-0.385-0.734-0.677-1.215-0.876c-0.482-0.198-1.028-0.297-1.64-0.297
			c-0.419,0-0.833,0.071-1.241,0.212c-0.408,0.142-0.774,0.36-1.097,0.655c-0.323,0.295-0.584,0.666-0.782,1.113
			c-0.198,0.448-0.298,0.984-0.298,1.607c0,0.499,0.065,0.926,0.195,1.283c0.13,0.358,0.306,0.669,0.527,0.935
			c0.221,0.267,0.476,0.496,0.765,0.689c0.289,0.193,0.598,0.368,0.927,0.527c0.521,0.261,0.952,0.544,1.292,0.85
			c0.34,0.306,0.51,0.72,0.51,1.241c0,0.533-0.142,0.946-0.425,1.241c-0.283,0.295-0.64,0.442-1.071,0.442
			c-0.385,0-0.762-0.091-1.131-0.272c-0.368-0.181-0.683-0.431-0.943-0.748l-1.105,1.496c0.34,0.397,0.793,0.725,1.36,0.986
			s1.184,0.391,1.853,0.391c0.465,0,0.907-0.079,1.326-0.238c0.419-0.159,0.785-0.394,1.097-0.706
			c0.312-0.311,0.561-0.694,0.748-1.147s0.281-0.975,0.281-1.564c0-0.51-0.079-0.952-0.238-1.326
			c-0.159-0.374-0.363-0.697-0.612-0.969c-0.249-0.272-0.527-0.504-0.833-0.697c-0.306-0.193-0.606-0.363-0.901-0.51
			c-0.499-0.249-0.901-0.513-1.207-0.791c-0.306-0.277-0.459-0.671-0.459-1.181c0-0.295,0.042-0.55,0.128-0.765
			C23.549,28.197,23.666,28.021,23.813,27.885z"></path>
        <path d="M15.568,28.854c0.204-0.397,0.459-0.711,0.765-0.944c0.306-0.232,0.663-0.348,1.071-0.348
			c0.737,0,1.337,0.334,1.802,1.003l1.173-1.428c-0.329-0.476-0.754-0.841-1.275-1.097c-0.521-0.255-1.128-0.382-1.819-0.382
			c-0.669,0-1.278,0.156-1.828,0.467c-0.55,0.312-1.017,0.748-1.403,1.309c-0.385,0.562-0.683,1.23-0.892,2.006
			c-0.21,0.777-0.314,1.624-0.314,2.542c0,0.918,0.105,1.762,0.314,2.533s0.504,1.436,0.884,1.997
			c0.38,0.562,0.844,1.001,1.394,1.318s1.165,0.476,1.845,0.476c0.748,0,1.368-0.147,1.861-0.442
			c0.493-0.295,0.898-0.68,1.215-1.156l-1.173-1.377c-0.193,0.295-0.434,0.544-0.722,0.748s-0.632,0.306-1.028,0.306
			c-0.419,0-0.785-0.116-1.097-0.349c-0.312-0.232-0.569-0.546-0.774-0.943s-0.357-0.864-0.459-1.403
			c-0.102-0.538-0.153-1.107-0.153-1.708c0-0.612,0.051-1.187,0.153-1.726C15.211,29.718,15.364,29.251,15.568,28.854z">
        </path>
        <path d="M31.446,27.885c0.147-0.136,0.312-0.235,0.493-0.298c0.181-0.062,0.368-0.093,0.561-0.093
			c0.669,0,1.224,0.266,1.666,0.799l1.122-1.462c-0.329-0.385-0.734-0.677-1.215-0.876c-0.482-0.198-1.028-0.297-1.64-0.297
			c-0.419,0-0.833,0.071-1.241,0.212c-0.408,0.142-0.774,0.36-1.097,0.655c-0.323,0.295-0.584,0.666-0.782,1.113
			c-0.198,0.448-0.298,0.984-0.298,1.607c0,0.499,0.065,0.926,0.195,1.283c0.13,0.358,0.306,0.669,0.527,0.935
			c0.221,0.267,0.476,0.496,0.765,0.689c0.289,0.193,0.598,0.368,0.927,0.527c0.521,0.261,0.952,0.544,1.292,0.85
			c0.34,0.306,0.51,0.72,0.51,1.241c0,0.533-0.142,0.946-0.425,1.241c-0.283,0.295-0.64,0.442-1.071,0.442
			c-0.385,0-0.762-0.091-1.131-0.272c-0.368-0.181-0.683-0.431-0.943-0.748l-1.105,1.496c0.34,0.397,0.793,0.725,1.36,0.986
			s1.184,0.391,1.853,0.391c0.465,0,0.907-0.079,1.326-0.238c0.419-0.159,0.785-0.394,1.097-0.706
			c0.312-0.311,0.561-0.694,0.748-1.147s0.28-0.975,0.28-1.564c0-0.51-0.079-0.952-0.238-1.326
			c-0.159-0.374-0.363-0.697-0.612-0.969c-0.249-0.272-0.527-0.504-0.833-0.697c-0.306-0.193-0.606-0.363-0.901-0.51
			c-0.499-0.249-0.901-0.513-1.207-0.791c-0.306-0.277-0.459-0.671-0.459-1.181c0-0.295,0.042-0.55,0.128-0.765
			C31.183,28.197,31.299,28.021,31.446,27.885z"></path>
      </g>
    </g>
    <g></g>
    <g></g>
    <g></g>
    <g></g>
    <g></g>
    <g></g>
    <g></g>
    <g></g>
    <g></g>
    <g></g>
    <g></g>
    <g></g>
    <g></g>
    <g></g>
    <g></g>
  </symbol>
  <symbol version="1.1" id="design" xmlns="http://www.w3.org/2000/svg" xmlns:xlink="http://www.w3.org/1999/xlink"
    x="0px" y="0px" xml:space="preserve" viewBox="0 0 512 512">
    <g>
      <g>
        <path
          d="M195.562,0H18.757C13.67,0,9.548,4.123,9.548,9.209v280.992c0,5.086,4.122,9.209,9.209,9.209h176.804
			c5.087,0,9.209-4.123,9.209-9.209V9.209C204.771,4.123,200.649,0,195.562,0z M186.353,280.992H27.966V18.418h158.386V280.992z">
        </path>
      </g>
    </g>
    <g>
      <g>
        <path d="M195.562,316.776H18.757c-5.087,0-9.209,4.123-9.209,9.209v176.806c0,5.086,4.122,9.209,9.209,9.209h176.804
			c5.087,0,9.209-4.123,9.209-9.209V325.985C204.771,320.899,200.649,316.776,195.562,316.776z M27.966,493.582v-35.823
			l27.551-30.311l60.123,66.135H27.966z M140.532,493.582l-26.099-28.706l11.059-12.168l37.145,40.875H140.532z M186.353,492.291
			l-54.044-59.471c-1.746-1.92-4.221-3.016-6.816-3.016s-5.07,1.095-6.815,3.016l-16.691,18.364l-39.659-43.623
			c-1.745-1.919-4.22-3.014-6.815-3.014c-2.593,0-5.069,1.095-6.814,3.016l-20.736,22.814v-95.183h158.389V492.291z">
        </path>
      </g>
    </g>
    <g>
      <g>
        <path d="M407.359,212.59H230.555c-5.087,0-9.209,4.123-9.209,9.209v280.992c0,5.086,4.122,9.209,9.209,9.209h176.804
			c5.087,0,9.209-4.123,9.209-9.209V221.799C416.568,216.713,412.446,212.59,407.359,212.59z M398.15,493.582H239.764V231.008
			H398.15V493.582z"></path>
      </g>
    </g>
    <g>
      <g>
        <path
          d="M407.359,0H230.555c-5.087,0-9.209,4.123-9.209,9.209v176.806c0,5.086,4.122,9.209,9.209,9.209h176.804
			c5.087,0,9.209-4.123,9.209-9.209V9.209C416.568,4.123,412.446,0,407.359,0z M398.15,176.806H239.764V18.418H398.15V176.806z">
        </path>
      </g>
    </g>
    <g>
      <g>
        <path d="M364.079,42.359h-90.244c-5.087,0-9.209,4.123-9.209,9.209v22.101c0,5.086,4.123,9.209,9.209,9.209
			c5.087,0,9.209-4.123,9.209-9.209V60.777h26.704v75.509h-9.208c-5.087,0-9.209,4.123-9.209,9.209s4.122,9.209,9.209,9.209h36.834
			c5.087,0,9.209-4.123,9.209-9.209s-4.122-9.209-9.209-9.209h-9.208V60.777h26.704v12.891c0,5.086,4.122,9.209,9.209,9.209
			s9.209-4.123,9.209-9.209V51.568C373.288,46.482,369.166,42.359,364.079,42.359z"></path>
      </g>
    </g>
    <g>
      <g>
        <path d="M140.595,347.118c-20.359,0-36.922,16.563-36.922,36.922s16.563,36.922,36.922,36.922
			c20.359,0,36.922-16.563,36.922-36.922S160.954,347.118,140.595,347.118z M140.595,402.543c-10.202,0-18.504-8.302-18.504-18.504
			s8.3-18.504,18.504-18.504c10.204,0,18.504,8.302,18.504,18.504S150.797,402.543,140.595,402.543z"></path>
      </g>
    </g>
    <g>
      <g>
        <path d="M155.044,40.824H88.742c-5.087,0-9.209,4.123-9.209,9.209s4.122,9.209,9.209,9.209h66.302
			c5.087,0,9.209-4.123,9.209-9.209S160.131,40.824,155.044,40.824z"></path>
      </g>
    </g>
    <g>
      <g>
        <path d="M155.044,80.694H59.275c-5.087,0-9.209,4.123-9.209,9.209c0,5.086,4.122,9.209,9.209,9.209h95.769
			c5.087,0,9.209-4.123,9.209-9.209C164.253,84.817,160.131,80.694,155.044,80.694z"></path>
      </g>
    </g>
    <g>
      <g>
        <path d="M155.044,120.562H59.275c-5.087,0-9.209,4.123-9.209,9.209c0,5.086,4.122,9.209,9.209,9.209h95.769
			c5.087,0,9.209-4.123,9.209-9.209C164.253,124.685,160.131,120.562,155.044,120.562z"></path>
      </g>
    </g>
    <g>
      <g>
        <path d="M155.044,160.431H59.275c-5.087,0-9.209,4.123-9.209,9.209c0,5.086,4.122,9.209,9.209,9.209h95.769
			c5.087,0,9.209-4.123,9.209-9.209C164.253,164.554,160.131,160.431,155.044,160.431z"></path>
      </g>
    </g>
    <g>
      <g>
        <path d="M155.044,200.299H59.275c-5.087,0-9.209,4.123-9.209,9.209s4.122,9.209,9.209,9.209h95.769
			c5.087,0,9.209-4.123,9.209-9.209S160.131,200.299,155.044,200.299z"></path>
      </g>
    </g>
    <g>
      <g>
        <path d="M99.792,240.168H59.275c-5.087,0-9.209,4.123-9.209,9.209s4.122,9.209,9.209,9.209h40.517
			c5.087,0,9.209-4.123,9.209-9.209S104.879,240.168,99.792,240.168z"></path>
      </g>
    </g>
    <g>
      <g>
        <path d="M366.842,253.414H300.54c-5.087,0-9.209,4.123-9.209,9.209s4.123,9.209,9.209,9.209h66.302
			c5.087,0,9.209-4.123,9.209-9.209S371.929,253.414,366.842,253.414z"></path>
      </g>
    </g>
    <g>
      <g>
        <path d="M366.842,293.283h-95.769c-5.087,0-9.209,4.123-9.209,9.209c0,5.086,4.123,9.209,9.209,9.209h95.769
			c5.087,0,9.209-4.123,9.209-9.209C376.051,297.406,371.929,293.283,366.842,293.283z"></path>
      </g>
    </g>
    <g>
      <g>
        <path d="M366.842,333.151h-95.769c-5.087,0-9.209,4.123-9.209,9.209c0,5.086,4.123,9.209,9.209,9.209h95.769
			c5.087,0,9.209-4.123,9.209-9.209C376.051,337.274,371.929,333.151,366.842,333.151z"></path>
      </g>
    </g>
    <g>
      <g>
        <path d="M366.842,373.019h-95.769c-5.087,0-9.209,4.123-9.209,9.209c0,5.086,4.123,9.209,9.209,9.209h95.769
			c5.087,0,9.209-4.123,9.209-9.209C376.051,377.142,371.929,373.019,366.842,373.019z"></path>
      </g>
    </g>
    <g>
      <g>
        <path d="M366.842,412.888h-95.769c-5.087,0-9.209,4.123-9.209,9.209c0,5.086,4.123,9.209,9.209,9.209h95.769
			c5.087,0,9.209-4.123,9.209-9.209C376.051,417.011,371.929,412.888,366.842,412.888z"></path>
      </g>
    </g>
    <g>
      <g>
        <path d="M311.59,452.756h-40.517c-5.087,0-9.209,4.123-9.209,9.209c0,5.086,4.123,9.209,9.209,9.209h40.517
			c5.087,0,9.209-4.123,9.209-9.209C320.799,456.879,316.677,452.756,311.59,452.756z"></path>
      </g>
    </g>
    <g>
      <g>
        <path d="M499.755,471.103c-3.599-3.596-9.429-3.596-13.026,0l-9.455,9.455V31.441l9.455,9.456
			c1.799,1.798,4.156,2.698,6.513,2.698s4.714-0.899,6.513-2.698c3.596-3.596,3.596-9.428,0-13.023L474.577,2.698
			c-3.598-3.596-9.428-3.596-13.024,0l-25.176,25.176c-3.596,3.596-3.596,9.428,0,13.023c3.598,3.596,9.428,3.596,13.024,0
			l9.455-9.456v449.117l-9.455-9.455c-3.598-3.596-9.428-3.596-13.024,0s-3.596,9.428,0,13.023l25.176,25.176
			c1.799,1.798,4.156,2.698,6.513,2.698c2.356,0,4.714-0.899,6.513-2.698l25.176-25.176
			C503.351,480.529,503.351,474.698,499.755,471.103z"></path>
      </g>
    </g>
    <g></g>
    <g></g>
    <g></g>
    <g></g>
    <g></g>
    <g></g>
    <g></g>
    <g></g>
    <g></g>
    <g></g>
    <g></g>
    <g></g>
    <g></g>
    <g></g>
    <g></g>
  </symbol>
  <symbol version="1.1" id="git" xmlns="http://www.w3.org/2000/svg" xmlns:xlink="http://www.w3.org/1999/xlink" x="0px"
    y="0px" xml:space="preserve" viewBox="0 0 31.499 31.499">
    <g>
      <g>
        <path d="M9.602,11.632c-1.208,0-1.813,0.711-1.813,2.131c0,1.324,0.605,1.986,1.813,1.986c1.171,0,1.755-0.673,1.755-2.015
			c0-0.558-0.134-1.037-0.402-1.439C10.628,11.854,10.178,11.632,9.602,11.632z"></path>
        <path d="M0,0v31.499h31.498V0H0z M18.62,22.097h-3.477v-10.12c-0.254,0.089-0.58,0.186-1.032,0.29
			c0.153,0.44,0.27,0.853,0.27,1.237c0,1.229-0.371,2.299-1.108,3.21c-0.74,0.911-1.694,1.454-2.864,1.625
			c-0.768,0.114-1.152,0.528-1.152,1.239c0,0.248,0.123,0.498,0.373,0.748c0.327,0.363,0.804,0.595,1.438,0.688
			c2.745,0.425,4.115,1.565,4.115,3.427c0,2.976-1.778,4.463-5.329,4.463c-1.457,0-2.666-0.26-3.605-0.776
			c-1.19-0.653-1.801-1.681-1.801-3.081c0-1.611,0.83-2.717,2.646-3.311V21.68c-0.656-0.404-0.948-1.018-0.948-1.843
			c0-1.075,0.292-1.747,0.948-2.017v-0.058c-0.656-0.21-1.158-0.69-1.638-1.438c-0.54-0.807-0.806-1.668-0.806-2.59
			c0-1.383,0.491-2.533,1.471-3.455c0.94-0.863,2.061-1.295,3.367-1.295c0.939,0,1.773,0.229,2.579,0.69
			c0.902,0,1.951-0.223,3.078-0.662V8.409h3.477v13.688H18.62z M18.375,6.249c-0.395,0.422-0.859,0.633-1.396,0.633
			c-0.558,0-1.032-0.211-1.426-0.633c-0.393-0.422-0.59-0.922-0.59-1.497c0-0.594,0.195-1.104,0.59-1.525
			c0.394-0.423,0.869-0.633,1.426-0.633c0.535,0,1,0.21,1.396,0.633c0.393,0.422,0.592,0.932,0.592,1.525
			C18.967,5.327,18.768,5.827,18.375,6.249z M27.053,21.533c-0.658,0.387-1.537,0.578-2.535,0.578c-1.4,0-2.344-0.5-2.881-1.5
			c-0.404-0.746-0.607-1.927-0.607-3.539V12.14h-1.715V8.966h1.715V7.134h3.104c0.016,0.452,0.039,1.414,0.049,1.832h2.66v3.174
			h-2.656v5.077c0,1.285,0.416,1.929,1.263,1.929c0.594,0,1.081-0.161,1.606-0.489v2.877H27.053z"></path>
        <path d="M7.473,24.876c0,0.995,0.843,1.495,2.532,1.495c1.478,0,2.216-0.519,2.216-1.555c0-0.979-0.805-1.469-2.418-1.469
			C8.249,23.349,7.472,23.857,7.473,24.876z"></path>
      </g>
    </g>
    <g></g>
    <g></g>
    <g></g>
    <g></g>
    <g></g>
    <g></g>
    <g></g>
    <g></g>
    <g></g>
    <g></g>
    <g></g>
    <g></g>
    <g></g>
    <g></g>
    <g></g>
  </symbol>
  <symbol version="1.1" id="html" xmlns="http://www.w3.org/2000/svg" xmlns:xlink="http://www.w3.org/1999/xlink" x="0px"
    y="0px" xml:space="preserve" viewBox="0 0 48 48">
    <g>
      <g>
        <path d="M47.987,21.938c-0.006-0.091-0.023-0.178-0.053-0.264c-0.011-0.032-0.019-0.063-0.033-0.094
			c-0.048-0.104-0.109-0.202-0.193-0.285c-0.001-0.001-0.001-0.001-0.001-0.001L42,15.586V10c0-0.022-0.011-0.041-0.013-0.063
			c-0.006-0.088-0.023-0.173-0.051-0.257c-0.011-0.032-0.019-0.063-0.034-0.094c-0.049-0.106-0.11-0.207-0.196-0.293l-9-9
			c-0.086-0.086-0.187-0.147-0.294-0.196c-0.03-0.014-0.06-0.022-0.091-0.033c-0.085-0.029-0.172-0.047-0.262-0.052
			C32.039,0.01,32.021,0,32,0H7C6.448,0,6,0.448,6,1v14.586l-5.707,5.707c0,0-0.001,0.001-0.002,0.002
			c-0.084,0.084-0.144,0.182-0.192,0.285c-0.014,0.031-0.022,0.062-0.033,0.094c-0.03,0.086-0.048,0.173-0.053,0.264
			C0.011,21.96,0,21.978,0,22v19c0,0.552,0.448,1,1,1h5v5c0,0.552,0.448,1,1,1h34c0.552,0,1-0.448,1-1v-5h5c0.552,0,1-0.448,1-1V22
			C48,21.978,47.989,21.96,47.987,21.938z M44.586,21H42v-2.586L44.586,21z M38.586,9H33V3.414L38.586,9z M8,2h23v8
			c0,0.552,0.448,1,1,1h8v5v5H8v-5V2z M6,18.414V21H3.414L6,18.414z M40,46H8v-4h32V46z M46,40H2V23h5h34h5V40z"></path>
        <polygon points="28.93,34.77 28.862,34.77 26.55,25.964 23.813,25.964 23.813,38 25.666,38 25.632,28.752 25.683,28.752 
			28.046,38 29.644,38 32.058,28.752 32.109,28.752 32.075,38 34.064,38 34.064,25.964 31.191,25.964 		"></polygon>
        <polygon
          points="16.095,27.698 18.356,27.698 18.356,38 20.362,38 20.362,27.698 22.623,27.698 22.623,25.964 16.095,25.964 		">
        </polygon>
        <polygon points="12.882,30.843 9.278,30.843 9.278,25.964 7.255,25.964 7.255,38 9.278,38 9.278,32.662 12.882,32.662 12.882,38 
			14.905,38 14.905,25.964 12.882,25.964 		"></polygon>
        <polygon points="38.552,25.964 36.495,25.964 36.495,38 41.867,38 41.867,36.113 38.552,36.113 		"></polygon>
      </g>
    </g>
    <g></g>
    <g></g>
    <g></g>
    <g></g>
    <g></g>
    <g></g>
    <g></g>
    <g></g>
    <g></g>
    <g></g>
    <g></g>
    <g></g>
    <g></g>
    <g></g>
    <g></g>
  </symbol>
  <symbol version="1.1" id="illustrator" xmlns="http://www.w3.org/2000/svg" xmlns:xlink="http://www.w3.org/1999/xlink"
    x="0px" y="0px" xml:space="preserve" viewBox="0 0 455 455">
    <g>
      <path d="M186.199,153.546c-3.542,14.264-25.092,96.545-25.092,96.545h52.75
		c0,0-23.461-82.281-26.966-96.545H186.199z"></path>
      <path d="M0,0v455h455V0H0z M240.023,351.601l-18.428-61.115h-68.192l-17.074,61.115
		H80.455l72.949-238.312h70.621l73.885,238.312H240.023z M372.774,351.601H318.95V178.775h53.824V351.601z M345.533,157.503
		c-16.935,0-28.317-12.078-27.936-26.86c-0.381-15.583,11.002-27.244,28.353-27.244c17.352,0,28.18,11.66,28.595,27.244
		C374.545,145.425,363.302,157.503,345.533,157.503z"></path>
    </g>
    <g></g>
    <g></g>
    <g></g>
    <g></g>
    <g></g>
    <g></g>
    <g></g>
    <g></g>
    <g></g>
    <g></g>
    <g></g>
    <g></g>
    <g></g>
    <g></g>
    <g></g>
  </symbol>
  <symbol version="1.1" id="jamf" xmlns="http://www.w3.org/2000/svg" xmlns:xlink="http://www.w3.org/1999/xlink" x="0px"
    y="0px" xml:space="preserve" viewBox="0 0 652 652">
    <path d="M145.5,244.1c-20.4,0-32.6,8.5-38.2,27.1l-14.1,44.1c-5.2,14.5-13.7,20.4-28.9,20.4H29.1
	c-4.4,0-8.2,3.7-8.2,8.2v22.6c0,4.1,3.3,7.4,7.8,7.4h143.1c4.4,0,8.2-3.7,8.2-8.2V251.9c0-4.4-3.3-7.8-7.8-7.8H145.5L145.5,244.1z
	 M29.4,218.2c-4.4,0-8.5,4.1-8.5,8.5v60.1c0,4.8,3.7,8.5,8.5,8.5h30.4c13.7,0,33-3,38.2-27.4c0,0,5.2-24.8,8.2-39.3
	c1.1-5.6-3-10.4-8.5-10.4H29.4L29.4,218.2z"></path>
    <path d="M587.9,267.5c0-20.4,13.7-30,33-30.8v16.7h-3.3c-8.5,0-13,7-13,15.6v13.3h15.6v14.8h-15.6v82.3h-16.7v-82.7
	h-14.5V282h14.5V267.5L587.9,267.5z M530,320.9c0-16.7-9.6-24.1-21.1-24.1c-13.7,0-24.1,8.9-24.1,24.8v58.6h-16.7v-59.3
	c0-16.7-9.6-24.1-21.1-24.1c-13.7,0-24.1,8.9-24.1,24.8v58.6h-16.3v-96.8h16.7v11.5h0.4c4.4-10,16.3-13.7,26.3-13.7
	c9.6,0,20.4,2.6,28.2,16.7c5.9-12.2,18.5-16.7,31.1-16.7c20.8,0,36.7,12.6,36.7,37.8v61.2h-16.7v-59.3H530z M329.1,329
	c-20.4,0-27.1,10-27.1,19.3c0,9.3,6.7,19.3,27.1,19.3c20.4,0,27.1-10,27.1-19.3C356.1,339.1,349.1,329,329.1,329L329.1,329
	L329.1,329z M355.4,315.3c0-15.9-15.9-19.7-28.6-19.7c-8.9,0-17.4,2.2-26.3,6.7l-7.4-13.7c14.5-6.3,26-7.4,34.5-7.4
	c23,0,44.5,10,44.5,33v66h-15.6v-10.4c-8.5,8.9-17.8,12.6-30.4,12.6c-23.4,0-41.9-13-41.9-34.9c0-17.8,14.8-33.4,41.5-33.4
	c10,0,20.8,3,29.7,11.1V315.3L355.4,315.3z M252.7,240.4c6.3,0,11.5,5.2,11.5,11.5c0,6.7-5.2,11.9-11.5,11.9
	c-6.3,0-11.5-5.2-11.5-11.5C241.2,245.6,246.4,240.4,252.7,240.4L252.7,240.4L252.7,240.4z M244.9,282.7h16.7l0.4,109.4
	c0,25.2-16.3,33.7-34.5,33.7h-6.3v-15.6h6.3c16.3,0,17.8-8.9,17.8-17.4L244.9,282.7L244.9,282.7z"></path>
  </symbol>
  <symbol xmlns="http://www.w3.org/2000/svg" viewBox="0 0 32 32" id="js">
    <path
      d="M2 2v28h28v-28zM17.238 23.837c0 2.725-1.6 3.969-3.931 3.969-2.106 0-3.325-1.087-3.95-2.406l2.144-1.294c0.413 0.731 0.788 1.35 1.694 1.35 0.862 0 1.412-0.338 1.412-1.656v-8.944h2.631zM23.462 27.806c-2.444 0-4.025-1.162-4.794-2.688l2.144-1.237c0.563 0.919 1.3 1.6 2.594 1.6 1.087 0 1.788-0.544 1.788-1.3 0-0.9-0.713-1.219-1.919-1.75l-0.656-0.281c-1.9-0.806-3.156-1.825-3.156-3.969 0-1.975 1.506-3.475 3.85-3.475 1.675 0 2.875 0.581 3.738 2.106l-2.050 1.313c-0.45-0.806-0.938-1.125-1.694-1.125-0.768 0-1.256 0.488-1.256 1.125 0 0.788 0.488 1.106 1.619 1.6l0.656 0.281c2.238 0.956 3.494 1.938 3.494 4.137 0 2.363-1.863 3.662-4.357 3.662z">
    </path>
  </symbol>
  <symbol role="img" xmlns="http://www.w3.org/2000/svg" viewBox="0 0 24 24" id="juniper">
    <path
      d="M23.086 13.164c.046 0 .072-.013.072-.062 0-.048-.025-.059-.073-.059h-.102v.121zm-.103.042v.129h-.045V13h.149c.085 0 .117.034.117.1 0 .054-.023.091-.08.102l.075.132h-.048l-.075-.129zm.074-.292a.254.254 0 0 0-.253.253c0 .14.114.254.253.254a.254.254 0 0 0 .253-.254.253.253 0 0 0-.253-.253zm-.29.253a.291.291 0 0 1 .29-.29.291.291 0 0 1 .29.29.291.291 0 0 1-.29.291.291.291 0 0 1-.29-.29zm-20.745-.66V8.83H1.6v3.677c0 .85.033 1.533-1.44 1.533a4.029 4.029 0 0 1-.16-.003v.397a6.215 6.215 0 0 0 .16.002c1.786 0 1.862-.8 1.862-1.929zm15.54-1.697h3.134c-.042-.918-.101-1.701-1.44-1.701-1.29 0-1.643.699-1.694 1.7zm1.702-2.089c1.794 0 1.853 1.204 1.845 2.476h-3.555c.008 1.12.286 1.955 1.743 1.955.775 0 1.13-.21 1.508-.489l.236.312c-.421.312-.918.556-1.744.556-1.82 0-2.156-1.053-2.156-2.41 0-1.355.388-2.4 2.123-2.4zm-4.149 2.705c.744 0 1.114-.362 1.114-1.094 0-.733-.399-1.08-1.132-1.08h-1.729v2.175zM15.11 8.84c1.068 0 1.552.53 1.552 1.474 0 .95-.478 1.527-1.558 1.527h-1.735v1.598h-.412V8.84zm-2.925 0v4.6h-.412v-4.6zm-1.194 4.6h-.43v-2.814c0-.809.009-1.491-1.474-1.491-1.474 0-1.44.682-1.44 1.533v2.771h-.422v-2.771c0-1.129.076-1.93 1.862-1.93 1.794 0 1.904.801 1.904 1.896zM2.747 8.83h.43v2.814c0 .809-.01 1.49 1.473 1.49 1.474 0 1.44-.681 1.44-1.532V8.83h.422v2.772c0 1.128-.076 1.929-1.862 1.929-1.794 0-1.903-.8-1.903-1.896zm18.967 1.837v2.771h.421v-2.771c0-.85-.034-1.533 1.44-1.533.159 0 .299.008.425.023v-.401a4.854 4.854 0 0 0-.424-.018c-1.786 0-1.862.8-1.862 1.929zm-.431 4.36a.82.82 0 0 0 .454.129c.262 0 .379-.074.379-.249 0-.18-.151-.206-.38-.247-.273-.048-.459-.094-.459-.351 0-.246.158-.342.46-.342.199 0 .341.045.442.114l-.072.11a.693.693 0 0 0-.37-.1c-.228 0-.326.063-.326.214 0 .161.132.192.358.233.278.05.479.091.479.364 0 .252-.161.373-.508.373a.919.919 0 0 1-.526-.145zm-.789-.442-.254.277v.396h-.132v-1.27h.132v.701l.643-.7h.156l-.456.498.518.771h-.153l-.454-.673m-1.1.032c.18 0 .29-.055.29-.255 0-.197-.107-.249-.296-.249h-.413v.504zm-.038.124h-.38v.517h-.133v-1.27h.549c.295 0 .428.118.428.37 0 .22-.104.348-.326.377l.307.523h-.144l-.301-.517m-.924-.117c0-.343-.16-.528-.506-.528-.345 0-.502.185-.502.528 0 .345.157.53.502.53.346 0 .506-.185.506-.53zm-.506-.657c.408 0 .641.203.641.655 0 .455-.233.657-.641.657-.406 0-.638-.202-.638-.657 0-.452.232-.655.638-.655zm-2.357.021.334 1.05.341-1.05h.117l.34 1.05.335-1.05h.13l-.408 1.279h-.116l-.343-1.058-.341 1.058h-.118l-.41-1.279zm-1.392.129v-.129h1.088v.129h-.476v1.141h-.136v-1.141zm-.204-.129v.129h-.705v.42h.688v.127h-.688v.47h.712v.124h-.847v-1.27zm-2.054 0 .76 1.048v-1.048h.13v1.27h-.124l-.783-1.078v1.078h-.13v-1.27z">
    </path>
  </symbol>
  <symbol version="1.1" xmlns="http://www.w3.org/2000/svg" xmlns:xlink="http://www.w3.org/1999/xlink"
    enable-background="new 0 0 297.5 297.5" viewBox="0 0 297.5 297.5" id="leadership">
    <g>
      <path
        d="M93.593,71.686c19.764,0,35.843-16.079,35.843-35.843S113.356,0,93.593,0S57.75,16.079,57.75,35.843   S73.829,71.686,93.593,71.686z M93.593,17c10.39,0,18.843,8.453,18.843,18.843s-8.453,18.843-18.843,18.843   S74.75,46.232,74.75,35.843S83.203,17,93.593,17z">
      </path>
      <path
        d="m132.503,80.868c-0.064-0.021-9.842-3.022-9.842-3.022-4.324-1.328-8.931,0.966-10.479,5.215l-10.373,28.461-3.646-16.237 6.025-10.435c0.804-1.393 0.804-3.107 0-4.5-0.805-1.393-2.29-2.25-3.897-2.25h-13.395c-1.607,0-3.093,0.857-3.897,2.25-0.804,1.393-0.804,3.107 0,4.5l6.025,10.435-3.646,16.237-10.374-28.461c-1.55-4.25-6.156-6.545-10.479-5.215 0,0-9.777,3.001-9.842,3.022-14.52,4.839-24.275,18.374-24.275,33.68v58.952c0,1.659 0.485,3.281 1.396,4.668l20.289,30.875v79.957c0,4.694 3.806,8.5 8.5,8.5h66c4.694,0 8.5-3.806 8.5-8.5v-79.957l20.289-30.875c0.911-1.387 1.396-3.009 1.396-4.668v-58.952c0-15.306-9.756-28.841-24.275-33.68zm7.275,90.089l-20.289,30.875c-0.911,1.387-1.396,3.009-1.396,4.668v74h-49v-74c0-1.659-0.485-3.281-1.396-4.668l-20.289-30.875v-56.409c0-7.945 5.044-14.976 12.562-17.522l1.826-.561 23.812,65.332c1.224,3.355 4.414,5.589 7.986,5.589s6.763-2.233 7.986-5.589l23.812-65.332 1.825,.561c7.519,2.546 12.563,9.576 12.563,17.522v56.409z">
      </path>
      <path
        d="M231.25,71.686c19.764,0,35.843-16.079,35.843-35.843S251.014,0,231.25,0s-35.843,16.079-35.843,35.843   S211.486,71.686,231.25,71.686z M231.25,17c10.39,0,18.843,8.453,18.843,18.843s-8.453,18.843-18.843,18.843   s-18.843-8.453-18.843-18.843S220.86,17,231.25,17z">
      </path>
      <path
        d="m229.639,82.5c-18.875,0-34.231,15.356-34.231,34.231v172.269c0,4.694 3.806,8.5 8.5,8.5h39.425c4.694,0 8.5-3.806 8.5-8.5v-80.998l11.523-31.589c0.341-0.934 0.515-1.92 0.515-2.913v-56.769c-0.001-18.875-15.357-34.231-34.232-34.231zm17.231,89.498l-11.523,31.589c-0.341,0.934-0.515,1.92-0.515,2.913v74h-22.425v-163.769c0-9.501 7.73-17.231 17.231-17.231s17.231,7.73 17.231,17.231v55.267z">
      </path>
    </g>
  </symbol>
  <symbol fill="#fff" xmlns="http://www.w3.org/2000/svg" viewBox="0 0 32 32" id="ldap">
    <path
      d="m13.6667 5.33333c0-1.28866 1.0446-2.33333 2.3333-2.33333s2.3333 1.04467 2.3333 2.33333c0 .6529-.2681 1.24316-.7003 1.66667h.367c1.6569 0 3 1.34315 3 3v2c0 .5523-.4477 1-1 1h-3v11.5h5.0415c.238-1.4189 1.472-2.5 2.9585-2.5h.367c-.4322-.4235-.7003-1.0138-.7003-1.6667 0-1.2886 1.0446-2.3333 2.3333-2.3333s2.3333 1.0447 2.3333 2.3333c0 .6529-.2681 1.2432-.7003 1.6667h.367c1.6569 0 3 1.3431 3 3v2c0 .5523-.4477 1-1 1h-8c-.5523 0-1-.4477-1-1v-.5h-12v.5c0 .5523-.44771 1-1 1h-8c-.552285 0-1-.4477-1-1v-2c0-1.6569 1.34315-3 3-3h.36699c-.43218-.4235-.70033-1.0138-.70033-1.6667 0-1.2886 1.04467-2.3333 2.33333-2.3333s2.33333 1.0447 2.33333 2.3333c0 .6529-.26815 1.2432-.70033 1.6667h.36701c1.4865 0 2.72048 1.0811 2.95852 2.5h5.04148v-11.5h-3c-.5523 0-1-.4477-1-1v-2c0-1.65685 1.3431-3 3-3h.367c-.4322-.42351-.7003-1.01377-.7003-1.66667z"
      fill="#fff(0,0,0)"></path>
  </symbol>
  <symbol xmlns="http://www.w3.org/2000/svg" viewBox="0.497 -67.31899999999999 198.998 198.998" id="micosoft">
    <g fill="#fff">
      <path
        d="M.496 51.61V13.094L34.568.502l18.517 5.924v51.85l-18.517 5.582L.496 51.61l34.072 4.1V10.873l-22.221 5.185v30.369L.497 51.61zM89.373 51.88c-5.362 0-9.658-1.769-12.885-5.304-3.228-3.533-4.84-8.133-4.84-13.796 0-6.084 1.644-10.938 4.932-14.56 3.288-3.622 7.764-5.433 13.425-5.433 5.223 0 9.43 1.759 12.622 5.275 3.192 3.518 4.788 8.116 4.788 13.796 0 6.172-1.637 11.051-4.907 14.64-3.27 3.589-7.647 5.381-13.135 5.381zm.316-35.083c-3.974 0-7.2 1.434-9.68 4.3-2.48 2.866-3.72 6.63-3.72 11.289s1.21 8.41 3.627 11.25 5.57 4.26 9.456 4.26c4.149 0 7.421-1.354 9.812-4.062 2.391-2.708 3.588-6.497 3.588-11.368 0-4.995-1.162-8.854-3.483-11.58-2.319-2.725-5.52-4.09-9.6-4.09zM123.177 10.675c-2.445 0-4.476.833-6.11 2.477-1.635 1.643-2.454 3.881-2.454 6.712v4.376h-4.606v3.703h4.606V51.25h4.306V27.943h10.53V51.25h4.306V27.943h6.32V24.24h-6.32v-4.167c0-3.815 1.513-5.716 4.537-5.716 1.073 0 2.027.22 2.87.694v-3.888c-.773-.316-1.806-.487-3.124-.487-2.445 0-4.499.834-6.134 2.477-1.636 1.644-2.454 3.882-2.454 6.712v4.376h-10.531v-4.166c0-3.816 1.51-5.717 4.536-5.717 1.072 0 2.026.22 2.87.694v-3.888c-.774-.319-1.829-.489-3.148-.489zM146.365 17.375a2.743 2.743 0 0 1-1.979-.792c-.545-.528-.818-1.195-.818-2.004s.273-1.481.818-2.017a2.717 2.717 0 0 1 1.979-.805c.791 0 1.463.267 2.018.805.555.536.83 1.208.83 2.017a2.67 2.67 0 0 1-.83 1.979c-.554.544-1.227.817-2.018.817zm2.11 33.867h-4.326v-27.01h4.325v27.01zM173.051 50.003c-2.074 1.248-4.538 1.873-7.385 1.873-3.851 0-6.959-1.253-9.323-3.76s-3.55-5.753-3.55-9.746c0-4.45 1.275-8.023 3.825-10.722 2.551-2.7 5.953-4.049 10.209-4.049 2.372 0 4.466.44 6.277 1.32v4.43c-2.004-1.406-4.15-2.11-6.435-2.11-2.762 0-5.026.99-6.794 2.968-1.767 1.979-2.65 4.576-2.65 7.794 0 3.166.83 5.663 2.491 7.492 1.663 1.828 3.89 2.742 6.688 2.742 2.355 0 4.573-.783 6.647-2.347v4.115zM199.494 38.82h-19.07c.07 3.006.879 5.327 2.425 6.963 1.55 1.634 3.676 2.452 6.385 2.452 3.042 0 5.839-1.002 8.387-3.007v4.062c-2.373 1.723-5.512 2.585-9.416 2.585-3.816 0-6.815-1.226-8.994-3.68-2.181-2.454-3.271-5.903-3.271-10.353 0-4.203 1.191-7.628 3.573-10.275 2.383-2.647 5.342-3.969 8.876-3.969s6.269 1.143 8.203 3.429c1.934 2.286 2.9 5.46 2.9 9.522v2.27zm-4.43-3.667c-.018-2.497-.62-4.44-1.808-5.829-1.187-1.39-2.836-2.084-4.945-2.084-2.041 0-3.772.731-5.197 2.19-1.424 1.46-2.303 3.368-2.636 5.723h14.585z">
      </path>
    </g>
  </symbol>
  <symbol version="1.1" id="networking" xmlns="http://www.w3.org/2000/svg" xmlns:xlink="http://www.w3.org/1999/xlink"
    x="0px" y="0px" xml:space="preserve" viewBox="0 0 55 55">
    <path d="M49,0c-3.309,0-6,2.691-6,6c0,1.035,0.263,2.009,0.726,2.86l-9.829,9.829C32.542,17.634,30.846,17,29,17
	s-3.542,0.634-4.898,1.688l-7.669-7.669C16.785,10.424,17,9.74,17,9c0-2.206-1.794-4-4-4S9,6.794,9,9s1.794,4,4,4
	c0.74,0,1.424-0.215,2.019-0.567l7.669,7.669C21.634,21.458,21,23.154,21,25s0.634,3.542,1.688,4.897L10.024,42.562
	C8.958,41.595,7.549,41,6,41c-3.309,0-6,2.691-6,6s2.691,6,6,6s6-2.691,6-6c0-1.035-0.263-2.009-0.726-2.86l12.829-12.829
	c1.106,0.86,2.44,1.436,3.898,1.619v10.16c-2.833,0.478-5,2.942-5,5.91c0,3.309,2.691,6,6,6s6-2.691,6-6c0-2.967-2.167-5.431-5-5.91
	v-10.16c1.458-0.183,2.792-0.759,3.898-1.619l7.669,7.669C41.215,39.576,41,40.26,41,41c0,2.206,1.794,4,4,4s4-1.794,4-4
	s-1.794-4-4-4c-0.74,0-1.424,0.215-2.019,0.567l-7.669-7.669C36.366,28.542,37,26.846,37,25s-0.634-3.542-1.688-4.897l9.665-9.665
	C46.042,11.405,47.451,12,49,12c3.309,0,6-2.691,6-6S52.309,0,49,0z M11,9c0-1.103,0.897-2,2-2s2,0.897,2,2s-0.897,2-2,2
	S11,10.103,11,9z M6,51c-2.206,0-4-1.794-4-4s1.794-4,4-4s4,1.794,4,4S8.206,51,6,51z M33,49c0,2.206-1.794,4-4,4s-4-1.794-4-4
	s1.794-4,4-4S33,46.794,33,49z M29,31c-3.309,0-6-2.691-6-6s2.691-6,6-6s6,2.691,6,6S32.309,31,29,31z M47,41c0,1.103-0.897,2-2,2
	s-2-0.897-2-2s0.897-2,2-2S47,39.897,47,41z M49,10c-2.206,0-4-1.794-4-4s1.794-4,4-4s4,1.794,4,4S51.206,10,49,10z">
    </path>
    <g></g>
    <g></g>
    <g></g>
    <g></g>
    <g></g>
    <g></g>
    <g></g>
    <g></g>
    <g></g>
    <g></g>
    <g></g>
    <g></g>
    <g></g>
    <g></g>
    <g></g>
  </symbol>
  <symbol version="1.1" id="okta" xmlns="http://www.w3.org/2000/svg" xmlns:xlink="http://www.w3.org/1999/xlink" x="0px"
    y="0px" xml:space="preserve" viewBox="0 0 400 134.7">
    <g>
      <g>
        <g>
          <path d="M50.3,33.8C22.5,33.8,0,56.3,0,84.1s22.5,50.3,50.3,50.3s50.3-22.5,50.3-50.3S78.1,33.8,50.3,33.8z
				 M50.3,109.3c-13.9,0-25.2-11.3-25.2-25.2s11.3-25.2,25.2-25.2s25.2,11.3,25.2,25.2S64.2,109.3,50.3,109.3z"></path>
        </g>
        <path d="M138.7,101c0-4,4.8-5.9,7.6-3.1c12.6,12.8,33.4,34.8,33.5,34.9c0.3,0.3,0.6,0.8,1.8,1.2
			c0.5,0.2,1.3,0.2,2.2,0.2l22.7,0c4.1,0,5.3-4.7,3.4-7.1l-37.6-38.5l-2-2c-4.3-5.1-3.8-7.1,1.1-12.3L201.2,41c1.9-2.4,0.7-7-3.5-7
			h-20.6c-0.8,0-1.4,0-2,0.2c-1.2,0.4-1.7,0.8-2,1.2c-0.1,0.1-16.6,17.9-26.8,28.8c-2.8,3-7.8,1-7.8-3.1l0-57.1c0-2.9-2.4-4-4.3-4
			h-16.8c-2.9,0-4.3,1.9-4.3,3.6v126.6c0,2.9,2.4,3.7,4.4,3.7h16.8c2.6,0,4.3-1.9,4.3-3.8v-1.3V101z"></path>
        <path d="M275.9,129.6l-1.8-16.8c-0.2-2.3-2.4-3.9-4.7-3.5c-1.3,0.2-2.6,0.3-3.9,0.3c-13.4,0-24.3-10.5-25.1-23.8
			c0-0.4,0-0.9,0-1.4V63.8c0-2.7,2-4.9,4.7-4.9l22.5,0c1.6,0,4-1.4,4-4.3V38.7c0-3.1-2-4.7-3.8-4.7h-22.7c-2.6,0-4.7-1.9-4.8-4.5
			l0-25.5c0-1.6-1.2-4-4.3-4h-16.7c-2.1,0-4.1,1.3-4.1,3.9c0,0,0,81.5,0,81.9c0.7,27.2,23,48.9,50.3,48.9c2.3,0,4.5-0.2,6.7-0.5
			C274.6,133.9,276.2,131.9,275.9,129.6z"></path>
      </g>
      <g>
        <path d="M397.1,108.5c-14.2,0-16.4-5.1-16.4-24.2c0-0.1,0-0.1,0-0.2l0-45.9c0-1.6-1.2-4.3-4.4-4.3h-16.8
			c-2.1,0-4.4,1.7-4.4,4.3l0,2.1c-7.3-4.2-15.8-6.6-24.8-6.6c-27.8,0-50.3,22.5-50.3,50.3c0,27.8,22.5,50.3,50.3,50.3
			c12.5,0,23.9-4.6,32.7-12.1c4.7,7.2,12.3,12,24.2,12.1c2,0,12.8,0.4,12.8-4.7v-17.9C400,110.2,398.8,108.5,397.1,108.5z
			 M330.4,109.3c-13.9,0-25.2-11.3-25.2-25.2c0-13.9,11.3-25.2,25.2-25.2c13.9,0,25.2,11.3,25.2,25.2
			C355.5,98,344.2,109.3,330.4,109.3z"></path>
      </g>
    </g>
  </symbol>
  <symbol role="img" xmlns="http://www.w3.org/2000/svg" viewBox="0 0 24 24" id="photoshop">
    <title>Adobe Photoshop icon</title>
    <path
      d="M9.85 8.42c-.37-.15-.77-.21-1.18-.2-.26 0-.49 0-.68.01-.2-.01-.34 0-.41.01v3.36c.14.01.27.02.39.02h.53c.39 0 .78-.06 1.15-.18.32-.09.6-.28.82-.53.21-.25.31-.59.31-1.03.01-.31-.07-.62-.23-.89-.17-.26-.41-.46-.7-.57zM19.75.3H4.25C1.9.3 0 2.2 0 4.55v14.899c0 2.35 1.9 4.25 4.25 4.25h15.5c2.35 0 4.25-1.9 4.25-4.25V4.55C24 2.2 22.1.3 19.75.3zm-7.391 11.65c-.399.56-.959.98-1.609 1.22-.68.25-1.43.34-2.25.34-.24 0-.4 0-.5-.01s-.24-.01-.43-.01v3.209c.01.07-.04.131-.11.141H5.52c-.08 0-.12-.041-.12-.131V6.42c0-.07.03-.11.1-.11.17 0 .33 0 .56-.01.24-.01.49-.01.76-.02s.56-.01.87-.02c.31-.01.61-.01.91-.01.82 0 1.5.1 2.06.31.5.17.96.45 1.34.82.32.32.57.71.73 1.14.149.42.229.85.229 1.3.001.86-.199 1.57-.6 2.13zm7.091 3.89c-.28.4-.671.709-1.12.891-.49.209-1.09.318-1.811.318-.459 0-.91-.039-1.359-.129-.35-.061-.7-.17-1.02-.32-.07-.039-.121-.109-.111-.189v-1.74c0-.029.011-.07.041-.09.029-.02.06-.01.09.01.39.23.8.391 1.24.49.379.1.779.15 1.18.15.38 0 .65-.051.83-.141.16-.07.27-.24.27-.42 0-.141-.08-.27-.24-.4-.16-.129-.489-.279-.979-.471-.51-.18-.979-.42-1.42-.719-.31-.221-.569-.51-.761-.85-.159-.32-.239-.67-.229-1.021 0-.43.12-.84.341-1.21.25-.4.619-.72 1.049-.92.469-.239 1.059-.349 1.769-.349.41 0 .83.03 1.24.09.3.04.59.12.86.23.039.01.08.05.1.09.01.04.02.08.02.12v1.63c0 .04-.02.08-.05.1-.09.02-.14.02-.18 0-.3-.16-.62-.27-.96-.34-.37-.08-.74-.13-1.12-.13-.2-.01-.41.02-.601.07-.129.03-.24.1-.31.2-.05.08-.08.18-.08.27s.04.18.101.26c.09.11.209.2.34.27.229.12.47.23.709.33.541.18 1.061.43 1.541.73.33.209.6.49.789.83.16.318.24.67.23 1.029.011.471-.129.94-.389 1.331z">
    </path>
  </symbol>
  <symbol version="1.1" id="rh" xmlns="http://www.w3.org/2000/svg" xmlns:xlink="http://www.w3.org/1999/xlink" x="0px"
    y="0px" xml:space="preserve" viewBox="0 0 216.2 136.8">
    <path d="M0.1,0.1c2.3,0,4.6,0,6.8,0c14.1,0,28.2-0.1,42.4,0c9.4,0.1,18.6,1.6,27.2,5.7c12,5.8,18.1,15.3,18.3,28.7
	c0.1,7.5-1.5,14.4-6,20.5c-4.2,5.8-10,9.4-16.6,11.9c-6.7,2.5-13.7,3.7-20.9,3.9c-2.2,0.1-4.5,0-6.7,0c0,0.1,0,0.2,0,0.3
	c1.5,0.3,3,0.5,4.5,0.8c9.8,1.9,18.7,5.6,26,12.5c4.9,4.6,8.8,10,11.9,16c4.2,8.2,8.2,16.6,12.2,24.9c0.7,1.4,1.4,2.8,2.2,4.1
	c2.9,4.8,6.7,6.6,12.4,6.2c0-0.4,0-0.8,0-1.2c0-41.8,0-83.6,0-125.4c0-0.7,0-1.4-0.1-2c-0.6-4.1-2.2-5.6-6.3-5.9
	c-1.5-0.1-3-0.1-4.6-0.1c-0.2,0-0.5-0.2-0.7-0.4c0.2-0.1,0.5-0.4,0.7-0.4c2.2,0,4.3,0,6.5,0c9.1,0,18.2,0,27.2,0c0.3,0,0.6,0,0.8,0
	c0.3,0.1,0.5,0.2,0.7,0.4c-0.2,0.1-0.5,0.4-0.7,0.4c-1.7,0.1-3.4,0.1-5,0.1c-0.3,0-0.6,0-0.8,0c-4.2,0.3-6.1,2.2-6.4,6.4
	c-0.1,1.3-0.1,2.6-0.1,3.9c0,19,0,38,0,57V70h67.6v-1.3c0-19.6,0-39.3,0-58.9c0-0.9-0.1-1.8-0.2-2.7c-0.5-4.1-2.2-5.7-6.3-5.9
	c-1.6-0.1-3.3-0.1-4.9-0.2c-0.3,0-0.6-0.3-0.9-0.4c0.3-0.1,0.6-0.3,0.9-0.3c11.4,0,22.7,0,34.1,0c0.3,0,0.6,0.2,0.9,0.3
	c-0.3,0.1-0.6,0.4-0.9,0.4c-2,0.1-4.1,0.1-6.1,0.4c-3.4,0.5-4.8,2.2-5.2,5.6c-0.1,0.6-0.1,1.3-0.1,1.9c0,39.7,0,79.5,0,119.2
	c0,5.6,1.7,7.4,7.2,7.8c1.4,0.1,2.9,0.1,4.3,0.1c0.7,0,0.8,0.3,0.8,0.9h-35.8c-0.3-0.8,0.2-0.8,0.8-0.9c1.7,0,3.4,0,5.1-0.1
	c4-0.3,5.6-1.9,6.1-5.8c0.1-0.9,0.2-1.8,0.2-2.7c0-18.3,0-36.6,0-54.8V71H125v1.5c0,17.7,0,35.4,0,53.1c0,1.3,0.1,2.6,0.1,3.8
	c0.3,4.2,2.2,6.1,6.4,6.4c2.1,0.1,4.2,0.1,6.4,0.1c0.7,0,1,0.2,0.9,0.9h-31.2c-0.1-0.1-0.3-0.2-0.4-0.2c-8.1-0.7-14.4-4.7-19.5-10.8
	c-4.4-5.4-7.5-11.6-10.5-17.8c-3.2-6.5-6.3-13.1-9.9-19.4c-5.7-10.2-14.7-15.8-26.3-17C35.2,71,29.3,71.1,23.5,71
	c-0.1,0-0.2,0.1-0.4,0.2v1.1c0,18.2,0,36.3,0,54.5c0,1.2,0.1,2.4,0.2,3.6c0.4,3.2,1.8,4.8,4.9,5.2c2.6,0.3,5.2,0.3,7.8,0.4
	c0.6,0,1.1,0,1,0.9c-12.3,0-24.6,0-37,0c0-0.3,0-0.6,0-1c2.4-0.1,4.8,0,7.1-0.3c2.6-0.4,3.9-2,4.3-4.6c0.2-1.1,0.3-2.1,0.3-3.2
	c0-39.2,0-78.4,0-117.6c0-1.2-0.1-2.5-0.2-3.7C11.3,3.8,10,1.9,7.3,1.5C5,1.1,2.5,1.2,0.1,1.1V0.1z M23.1,70c0.4,0,0.5,0.1,0.7,0.1
	c8.8,0,17.6,0.2,26.4-0.1c10.2-0.3,18.9-4.2,25.5-12.1c5.9-7.1,8.3-15.3,8-24.5c-0.2-6.1-1.6-11.9-5-17.1C74.1,9.3,67.4,5.2,59.5,3
	C54.8,1.7,50,1,45.1,1C40,1,34.9,0.9,29.9,1.1c-4.3,0.1-6,1.8-6.6,6c-0.1,0.8-0.1,1.6-0.1,2.4c0,19.7,0,39.5,0,59.2L23.1,70L23.1,70
	z"></path>
  </symbol>
  <symbol version="1.1" id="pink" xmlns="http://www.w3.org/2000/svg" xmlns:xlink="http://www.w3.org/1999/xlink" x="0px"
    y="0px" xml:space="preserve" viewBox="0 0 3571 1181">
    <path d="M3571,609.5c-3.6,0.3-7.3,0.8-10.9,0.8c-117.6,0-235.3,0-352.9,0h-11.9c-1-10.3-0.4-19.8-0.4-30.6c4.6-0.2,8.8-0.1,12.9-0.6
	c16.5-1.7,33.1-3.4,49.6-5.6c4.6-0.6,9-2.4,13.3-4c19.9-7.6,27.2-20.7,22.7-44.7c-1.4-7.6-5-15.3-9.3-21.9
	c-42.9-66.3-86-132.3-129.2-198.4c-1.2-1.9-2.8-3.5-4.6-5.8c-3,2.2-5.7,4-8.3,6c-38.9,29.7-77.8,59.5-116.9,88.9
	c-5.4,4-7.6,8.2-7.5,14.9c0.6,30,0.5,59.9,1.3,89.9c0.2,9.2,2,18.5,4.2,27.5c4.7,19,16.5,32.2,34.7,39.8
	c17.1,7.2,35.2,9.6,53.5,11.6c7.6,0.8,15.2,1.4,23.6,2.2v28.8c-0.2,0.2-0.4,0.4-0.6,0.7c-0.2,0.2-0.5,0.6-0.8,0.6
	c-5.3,0.2-10.6,0.6-15.9,0.6c-129.6,0-259.2,0-390.1,0c-0.8-10.4-0.8-20,0-30.1c11.4-0.9,22.4-1.3,33.2-2.6c8.2-1,16.5-2.4,24.5-4.5
	c32-8.5,49.4-30.2,53.8-62.3c2-14.5,3.2-29.2,3.2-43.8c0.3-106.6,0.3-213.1,0-319.7c0-14.9-1.1-30-3.2-44.8
	c-5.6-41-28.8-64.4-69.8-70.6c-13.4-2-27.1-2.5-41.4-3.8c-1.8-9.2-0.5-18.7-0.7-28.2h415.9c0.3,9.5,1.3,19-0.7,29
	c-6.5,0.3-12.4,0.5-18.4,0.9c-18,1.2-35.6,4.2-52.9,9.6c-24.4,7.5-39.4,23.5-46.3,47.9c-4.8,16.8-6.8,33.9-6.9,51.3
	c-0.2,71.9-0.1,143.8-0.1,215.6c0,2.1,0.7,4.2,1.3,7.2c3.6-2.6,6.3-4.5,8.9-6.5c39.6-30.9,79.3-61.8,118.9-92.7
	c53-41.3,106-82.7,159.1-124c6.1-4.8,11.6-10,14.6-17.3c6-14.6,7.2-29.8,3.5-45c-5.7-23.1-22-35.6-44-41.8
	c-15.2-4.3-30.9-4.8-46.5-4.8c-5.2,0-10.4,0-16.5,0V0H3571v30c-3.6,0.1-7.4-0.1-10.9,0.5c-51.6,9.1-99.5,27.1-141.2,59.4
	c-48.5,37.5-96.6,75.5-144.8,113.3c-1.8,1.4-3.4,3-5.4,4.9c2.1,3.4,3.9,6.5,5.9,9.6c67.1,103.7,134.4,207.3,201.3,311.1
	c10.5,16.3,24.3,28.1,41.5,36.3c17,8.1,34.9,13,53.7,14.5L3571,609.5L3571,609.5z M3003,580.4c0.3-0.6,0.6-1.2,0.9-1.8
	c-13.6-12.9-21.7-29.1-27.4-46.2h-113.2c-4.3,8.9-7.7,17.6-12.4,25.5c-4.6,7.7-10.5,14.7-16.2,22.6L3003,580.4L3003,580.4z
	 M3460.7,581.2c-15.4-10.4-24.5-23.8-33.6-37.1c-3.8-5.5-7.7-10.9-11-16.7c-2.7-4.7-6.1-6.1-11.4-6c-25.3,0.2-50.6,0.1-75.9,0.2
	c-2.2,0-4.4,0.5-7.2,0.8c5.6,22,4.7,42.1-15.4,58.9L3460.7,581.2L3460.7,581.2z M3002,32.3c-8.2-2.2-158.9-2-165.3,0.2
	c6.1,9.3,12.7,18.4,18.1,28.2c3,5.5,6.2,7.4,12.3,7.4c35.3-0.3,70.6-0.1,105.9-0.1c2.3,0,4.6-0.2,6.1-0.3
	C2987,55.4,2994.6,43.7,3002,32.3z M2868.3,510.8h102.8c-0.8-15.8-1.6-30.9-2.5-46.5h-97.6C2870.2,480,2869.3,495.1,2868.3,510.8z
	 M2969,397.6c-33.4,0-65.7,0-98,0v44.8c12.2,2.1,90.7,1.6,98-0.6V397.6z M2871.5,333.3c-2,12.5-1.5,36,1,43.8c31.8,0,63.9,0,96.5,0
	v-43.8L2871.5,333.3L2871.5,333.3z M2870.9,311.9c33.1,0,65.4,0.2,97.7-0.2V270h-97.7V311.9z M3398.2,501
	c-10.7-17.2-20-32.4-29.8-47.4c-1.1-1.7-4.6-2.6-6.9-2.6c-23.3-0.2-46.5-0.1-69.8,0c-1.2,0-2.5,0.5-4.2,0.8c0.5,1.6,0.7,2.9,1.3,4
	c7.7,13.6,15.6,27,23.2,40.6c2.1,3.8,5,4.7,9,4.7c14.6-0.1,29.2,0,43.9,0C3375.1,501,3385.3,501,3398.2,501L3398.2,501z
	 M2968.8,208.2h-98.3c-0.1,13.7-0.5,26.7,0.2,39.9h98.1V208.2z M2968.6,186.9v-38.7h-97.7v38.7H2968.6z M2866.1,88.9
	c1.6,13.2,3.1,24.9,4.6,37h98.3c1.5-12.5,2.9-24.5,4.4-37H2866.1L2866.1,88.9z M3244.4,384.8c0.2,1.6,0.1,2.7,0.5,3.4
	c7.8,12.4,15.7,24.7,23.4,37.2c2.7,4.4,6.5,4.9,11.1,4.9c21.6-0.1,43.3,0,64.9-0.1c2.2,0,4.4-0.4,7.4-0.7c-0.8-1.8-1.2-3-1.9-4.1
	c-7.2-11.6-14.7-23-21.6-34.8c-2.9-4.9-6.3-6.8-12-6.7c-21.6,0.3-43.3,0.1-64.9,0.1C3249.1,384.2,3246.9,384.6,3244.4,384.8
	L3244.4,384.8z M3201.1,319.6c0.7,2,0.9,3.3,1.6,4.3c7.1,11.3,14.4,22.4,21.3,33.8c3,4.9,6.8,6.4,12.4,6.3c22-0.3,44-0.1,66-0.1
	c2.1,0,4.2-0.4,7.1-0.8c-7.9-12.8-15.6-24.5-22.5-36.5c-3.2-5.6-6.8-7.9-13.4-7.7c-21,0.5-42,0.1-63,0.2
	C3207.6,319,3204.7,319.4,3201.1,319.6L3201.1,319.6z M3268.1,298.4c-14.1-21.3-26.8-40.5-39.8-60.2c-19,14.7-36.8,28.5-55.1,42.5
	c2.4,3.7,4.7,6.6,6.4,9.8c3.4,6.2,8.4,8.3,15.6,8.1c17-0.5,34-0.1,50.9-0.1C3252.7,298.4,3259.3,298.4,3268.1,298.4L3268.1,298.4z
	 M3458.8,31.5h-126.5c4.3,6.4,8.4,11.6,11.5,17.3c2.4,4.4,5.4,5.9,10.3,5.8c20.3-0.2,40.6,0,60.9-0.2c2.9,0,6-0.7,8.5-2.1
	C3434.6,46.1,3445.7,39.3,3458.8,31.5L3458.8,31.5z M3394.4,72.6h-41c0.6,10.1,1.2,19.4,1.8,30.1
	C3368.5,92.4,3380.6,83.2,3394.4,72.6z"></path>
    <path d="M2453.3,0v28.6c-4.9,0.5-8.4,0.9-11.9,1.1c-45.7,2.9-77.6,25.6-95.4,67.5c-10.9,25.7-16.2,52.8-16.3,80.7
	c-0.1,139.5,0,279.1,0,418.6v14.2H2318c-36,0-72-0.2-108,0.2c-7.5,0.1-12.1-2.2-16.7-8.1c-91.3-117.2-182.7-234.2-274.2-351.3
	c-35.9-45.9-71.8-91.9-107.7-137.8c-1.6-2.1-3.3-4.1-5.3-6.6c-3.1,3.7-2,7.4-2,10.8c-0.1,78.3-0.1,156.5-0.1,234.8
	c0,35-0.5,69.9,0.2,104.9c0.3,15.5,1.9,31.3,5.1,46.5c7.2,33.3,27.9,55,60.3,66c16.2,5.5,33,7.6,50,9.2c2,0.2,3.9,0.5,6.6,0.8v28.5
	c-7.2,2.3-268.9,3.1-284.8,0.7v-29.3c11.6-1.5,22.7-2.7,33.8-4.2c16.8-2.3,33.4-5.7,49.4-11.9c29.7-11.5,44.6-33.4,46.6-64.7
	c0.4-5.6,0.3-11.3,0.3-17c0-131.9-0.1-263.8,0.2-395.6c0-7.9-2.1-13.7-7.4-19.6c-17.5-19-38.9-29.9-64.3-33
	c-13.6-1.7-27.2-2.7-40.8-4.1c-2.3-0.2-4.5-0.5-7.8-0.8V0c99.3,0,198.6,0,297.9,0c1.6,2.8,2.9,5.8,4.8,8.3
	c113,144.1,226,288.2,339.1,432.3c1.9,2.5,4.1,4.8,7.5,8.6c0.2-4.5,0.5-7,0.5-9.5c0-87.9,0.2-175.8-0.2-263.7
	c-0.1-13.6-1.5-27.3-3.9-40.6c-10.5-57.7-48.7-94.6-106.6-103.8c-7.5-1.2-15-2-23.3-3V0H2453.3L2453.3,0z M2122.4,463.8
	c1.9,3.3,2.7,5.1,3.8,6.5c9.4,12.1,19,24,28.1,36.3c3,4,6.4,5,11.1,4.9c35.6-0.1,71.2-0.1,106.8-0.1c2.1,0,4.2-0.6,7.7-1.1
	c-11-14.2-21.3-27.2-31.2-40.5c-3.3-4.5-7-6.2-12.6-6.1c-27.6,0.2-55.2,0.1-82.9,0.1C2143.7,463.8,2134.1,463.8,2122.4,463.8
	L2122.4,463.8z M2226.9,443c-2.3-3.5-3.8-5.9-5.5-8.2c-7.7-10-15.8-19.7-23.2-29.9c-3.9-5.3-8.1-7.5-14.9-7.5
	c-34.2,0.4-68.5,0.2-102.7,0.2c-2.9,0-5.7,0.2-9.8,0.4c2.1,3.2,3.4,5.4,4.9,7.4c8.1,10.5,16.6,20.8,24.4,31.6
	c3.8,5.2,8.1,6.7,14.3,6.7c34.2-0.3,68.5-0.1,102.7-0.1C2219.9,443.5,2222.7,443.2,2226.9,443L2226.9,443z M2020.3,333.3
	c2,3.1,3.3,5.3,4.8,7.3c7.7,10,15.7,19.8,23.2,30c3.5,4.8,7.4,6.6,13.4,6.6c34.9-0.2,69.9-0.1,104.8-0.1c2.5,0,4.9-0.5,8.4-0.9
	c-2.1-3.1-3.5-5.4-5.1-7.4c-7.5-9.7-15.4-19.2-22.6-29.2c-3.7-5.1-7.8-7.1-14.1-7.1c-34.3,0.3-68.6,0.1-102.8,0.2
	C2027.3,332.6,2024.4,333,2020.3,333.3L2020.3,333.3z M2301.5,580.2c0-12.5,0.1-24.4,0-36.3c-0.1-10-2.4-12.2-12.5-12.2
	c-35.3,0-70.6,0-105.8,0c-2.1,0-4.3,0.4-7.5,0.7c1.9,2.9,2.9,4.9,4.3,6.7c9.2,11.8,18.6,23.5,27.5,35.5c3.6,4.8,7.6,6.5,13.5,6.5
	c23.6-0.3,47.2-0.1,70.9-0.1C2294.7,580.9,2297.6,580.5,2301.5,580.2L2301.5,580.2z M1969.6,269.8c10.2,13.1,19.3,24.5,27.9,36.2
	c3.3,4.5,6.9,6.2,12.5,6.1c35.6-0.2,71.2-0.1,106.8-0.1c2.1,0,4.2-0.5,7.8-0.9c-9.6-12.4-18.6-23.4-27-34.9c-3.8-5.2-7.9-7-14.2-6.9
	c-34.6,0.3-69.2,0.1-103.8,0.1C1977.1,269.3,1974.5,269.5,1969.6,269.8L1969.6,269.8z M1770.4,31.6c12.4,11.8,23.7,22.9,35.5,33.5
	c2.1,1.9,6,2.6,9.1,2.7c37.6,0.2,75.1,0.1,112.7,0.1c1.8,0,3.6-0.6,6.7-1.1c-7.9-10.2-15.2-19.2-21.9-28.6
	c-3.8-5.4-8.2-7.5-14.9-7.4c-39.2,0.3-78.4,0.1-117.7,0.2C1777,30.9,1774.1,31.3,1770.4,31.6L1770.4,31.6z M2075.8,248.1
	c-9.9-12.7-18.7-23.5-26.9-34.7c-3.4-4.6-7.1-6-12.6-6c-35.6,0.2-71.2,0.1-106.8,0.1c-2.1,0-4.2,0.5-7.7,0.9
	c9.2,11.9,17.8,22.4,25.8,33.4c3.7,5.1,7.8,7.1,14.2,7c34.6-0.3,69.2-0.1,103.8-0.2C2068.2,248.7,2070.8,248.4,2075.8,248.1
	L2075.8,248.1z M1876.2,147.6c0.6,1.9,0.6,3.2,1.3,4c8.3,10.8,16.8,21.5,25,32.3c2.6,3.5,6,3.6,9.7,3.6c35.9,0,71.8,0,107.8-0.1
	c2,0,4.1-0.7,7.4-1.3c-9-11.6-17.3-21.9-25.1-32.6c-3.3-4.5-7-6.1-12.5-6.1c-28.6,0.2-57.2,0.1-85.8,0.1
	C1895,147.6,1886,147.6,1876.2,147.6L1876.2,147.6z M1828.9,89.1c1.6,2.6,2.4,4.3,3.5,5.7c6.8,8.6,13.9,17,20.4,25.9
	c3.3,4.6,7.2,6,12.7,5.9c35.3-0.2,70.6-0.1,105.9-0.1c2.4,0,4.9-0.5,8.8-1c-8.4-10.9-16.2-20.3-23.3-30.3c-3.7-5.2-7.9-7-14.2-6.9
	c-34.6,0.3-69.3,0.1-103.9,0.2C1835.9,88.5,1833,88.8,1828.9,89.1L1828.9,89.1z M1758.2,578.5l0.7,1.9h67.3
	c-7-6.9-13.5-12.5-19-18.9c-5.7-6.7-10.4-14.1-16.3-22.3C1783.5,556.1,1772.3,568.5,1758.2,578.5L1758.2,578.5z M2298.6,62
	c8-9.8,16.2-19.9,24.9-30.4h-54.2C2279.6,42.2,2289.1,52.1,2298.6,62L2298.6,62z"></path>
    <path d="M469.9,0c6.6,0.7,13.1,1.6,19.7,2c45.7,3.1,90.7,9.8,133.7,26.1c17.5,6.6,34.1,15.1,49.3,26.1c35.1,25.5,53.8,60,56.6,103.1
	c1.1,17.4-0.4,34.6-4.5,51.6c-8.6,35.7-28.8,63.2-59.3,83.3c-27.5,18-58.2,27.5-90.2,33.4c-27.3,5-54.9,6.5-82.5,6.5
	c-59.6,0-119.3,0-178.9,0c-3.9,0-7.9,0-12.2,0c-0.5,2.7-1.2,4.6-1.2,6.5c0.4,51.9,0.5,103.9,1.4,155.8c0.2,10.8,2.5,21.8,5.2,32.4
	c5.9,23.1,21,38,43.6,45.3c17.3,5.6,35.1,7.4,53.2,7.5c5.6,0,11.2,0,17.4,0v30.2c-2.5,0.3-5,0.8-7.6,0.8c-134.6,0-269.2,0-403.8,0
	c-3.3,0-6.6-0.8-9.8-1.2c0-10,0-20,0-30c8.6,0,17.3,0.3,25.9,0.1c16.7-0.3,33.2-2.2,49.1-7.6c20.5-7,33.6-20.8,39.4-41.6
	c4.4-15.9,5.6-32.1,5.6-48.4c0-118.9,0.1-237.7-0.1-356.6c0-11-0.7-22-2.1-32.8c-4-33.1-19.5-49.7-52.2-57.1
	c-17.4-3.9-35-4-52.7-4.1c-2.8,0-5.7,0-9,0V0C159.3,0,314.6,0,469.9,0z M300.9,303.2c3.9,0.2,7.1,0.5,10.3,0.5
	c19.7,0,39.3,0.5,59-0.1c13.6-0.5,27.4-1.3,40.7-4c43.9-8.9,76.9-32.6,94.8-74.5c25.6-59.9,7.7-121.7-30.5-162.1
	c-21-22.2-47-33.1-77.7-32.9c-28.6,0.1-57.3-0.2-86-0.2c-3.5,0-7,0.3-10.7,0.5L300.9,303.2L300.9,303.2z M280.3,579
	c-13.8-13.2-21.8-29.4-27.2-46.7H142.9c-4.1,17.9-11.6,33.8-25.2,47.1C130.1,581.8,271.9,581.4,280.3,579L280.3,579z M672.5,148.3
	H545.1v38.6h126.4C674.7,176.9,675.1,160.1,672.5,148.3L672.5,148.3z M526.6,248.1c3.1,0.3,5.7,0.6,8.2,0.7c7,0.1,14,0,21,0
	c27.3,0,54.6,0.1,81.9-0.1c3.4,0,8.1-0.5,10-2.7c9.5-10.8,15.9-23.4,20-37.9H541.3C536.4,221.5,531.6,234.5,526.6,248.1L526.6,248.1
	z M148.2,510.8h99.6c-0.8-15.9-1.6-31-2.4-46.1h-97.3V510.8z M666.8,126c-3.4-11.7-10.2-22.4-19.4-32.1c-3.7-3.9-7.5-5.7-13-5.6
	c-32.6,0.2-65.1,0.1-97.7,0.2c-2.5,0-4.9,0.6-7.8,0.9c4.4,12.7,8.5,24.5,12.8,36.7L666.8,126L666.8,126z M245.8,398.2h-96.3
	c-2.1,12.5-1.6,37.9,0.7,44.7c18.2,1.9,88.4,1,95.6-1.2V398.2L245.8,398.2z M148.9,333.2v42.3c10.2,2.4,89.1,2.1,96.7-0.3v-42.1
	H148.9z M122.5,31.5c7,12.1,13.6,23.7,20.5,35.7c16.8,1.8,95.6,1,102.4-1.1V31.5H122.5z M244.9,311.4c2-11.8,1.6-34.7-0.6-41.5
	c-19.2-1.7-87.8-1-95.3,1.1v40.4L244.9,311.4L244.9,311.4z M245.5,208.3h-96.6v39.8h96.6V208.3z M148.7,186.2
	c11.3,2.3,89.7,1.9,96.6-0.4v-37.5h-96.6V186.2z M148.6,125.4c12.8,2.2,90,1.6,96.8-0.6V89.6c-12.8-2.1-91.8-1.6-99,0.6
	C147.1,101.7,147.8,113.2,148.6,125.4L148.6,125.4z M619,272.1c-0.1-0.8-0.2-1.5-0.3-2.2c-1.5-0.2-3-0.5-4.6-0.5
	c-31.9,0-63.8,0.1-95.8-0.1c-4.5,0-7.1,1.9-10.1,4.9c-8.6,8.7-17.7,17-26.6,25.4c-1,1-2,2-4.4,4.5C528.2,303.1,576,298.1,619,272.1
	L619,272.1z M610.2,67.4c-25.1-17.9-101-35.4-122.8-33.4c7.8,9.1,16,17.8,23,27.2c3.9,5.2,8,6.8,14.2,6.8
	c24.9-0.3,49.9-0.1,74.8-0.1C602.3,67.8,605.2,67.6,610.2,67.4L610.2,67.4z"></path>
    <path d="M1373.6,0v28.6c-7.1,0.4-13,0.3-18.8,1.1c-13.2,1.8-26.6,3-39.3,6.5c-27.6,7.7-44.8,26.2-52,54.1
	c-4.5,17.5-5.9,35.5-5.9,53.5c-0.1,110.2-0.1,220.4,0,330.6c0,16.7,1.4,33.2,5.7,49.5c6.4,24.5,21.8,40.6,45.9,48.3
	c15.7,5,31.9,6.7,48.2,7.3c4.9,0.2,9.8,0,15.1,0v30.3H952.4c-0.9-9.6-0.3-19.1-0.3-29.7c4-0.2,7.5-0.3,11-0.4
	c19.3-0.6,38.6-1.2,57.9-2c3.6-0.2,7.2-1,10.8-1.8c25.9-5.6,38.4-18.9,41.8-45.4c1.3-9.9,2-19.9,2.1-29.8
	c0.1-128.9,0.2-257.7-0.1-386.6c0-13.2-1.5-26.6-3.9-39.6c-3.7-20.1-16-33.6-36-38.6c-11.9-3-24.1-5-36.3-5.8
	c-15.2-1-30.5-0.2-47-0.2C952.1,19,951.9,9.5,951.7,0C1092.3,0,1233,0,1373.6,0L1373.6,0z M1102.2,532.3
	c-2.6,17.6-6.8,33.7-18.6,47.4c12.5,2.1,146.1,1.7,154.7-0.5c-14-13.1-22.1-29.3-27.9-46.8H1102.2z M1235.1,32.2
	c-6.6-1.8-139.9-2-148.6-0.1c5.1,11.6,10.2,23.3,15.7,35.7c3,0,6.6,0,10.3,0c24.7,0,49.3,0,74,0c7.3,0,14.7,0,22,0
	c3.1,0,5.6-0.4,7.5-3.6C1222.1,53.4,1228.7,42.7,1235.1,32.2L1235.1,32.2z M1104.2,510.9h100.9c-0.8-15.9-1.5-31.2-2.3-46.3
	c-19.9-2-91.3-1.1-98.6,1.1V510.9z M1203.1,398.8c-12.8-2.2-91.9-1.6-98.4,0.5v43.5h98.4V398.8z M1203.2,334
	c-12.3-2.4-91.8-1.8-98.7,0.5v41.2c11.8,2.4,91.6,1.9,98.7-0.7V334z M1202.9,311.5V270h-98.4v41.5H1202.9z M1203.1,148.3H1105
	c-2,12.7-1.6,31.9,0.8,38.6c18.3,1.9,90.2,1.1,97.4-1.2L1203.1,148.3L1203.1,148.3z M1202.9,208.1h-97.8c-2,10.1-1.8,32.3,0.2,39.7
	c12.6,1.9,90.2,1.3,97.6-0.9V208.1z M1104.5,125.3c11.7,2.2,91.5,1.7,98.5-0.5c1.3-11.8,2.6-23.5,4.1-36.3
	c-34.8-0.1-68.9-0.1-103.4,0c0,11.4,0,21.3,0,31.3C1103.8,121.7,1104.3,123.6,1104.5,125.3L1104.5,125.3z"></path>
    <path d="M2867.2,1181c-3.6-1.5-7.2-3.1-10.8-4.4c-33.2-11.4-50.9-41.9-48.3-72.3c2.8-33.8,27.9-60.1,60.5-64.7
	c35.7-5,70.2,18.4,78.3,53.2c8.5,36.5-11.6,72.5-46.7,83.9c-3.7,1.2-7.3,2.8-10.9,4.3L2867.2,1181L2867.2,1181z M2830.7,1110
	c0.1,21.9,11.9,40.1,30.7,47c33.1,12.2,66.9-13.6,64.9-49.4c-1.6-28.2-21-48.2-47.1-48.5C2851.1,1058.7,2830.6,1080.2,2830.7,1110
	L2830.7,1110z"></path>
    <path d="M2375.3,1181c-3.3-1.3-6.6-2.9-10-4c-32.2-10.2-52.1-39.5-49.7-73.2c2.3-32.1,27.7-59.1,60.1-64.1
	c35.7-5.4,70.9,18.5,79.1,53.7c8.3,35.8-11.8,71.6-46.6,83.2c-3.7,1.2-7.2,2.9-10.8,4.4L2375.3,1181L2375.3,1181z M2433.8,1109.4
	c-0.1-27.6-19.4-49-45.3-50.3c-28.9-1.4-52.3,21-50.3,54c1.2,20.6,11,36.3,30.9,43.8C2401.5,1169.1,2433.9,1145.1,2433.8,1109.4
	L2433.8,1109.4z"></path>
    <path d="M1413.6,1181c-3.7-1.4-7.4-2.9-11.1-4.2c-10.6-3.7-19.7-9.6-27.9-19.1c4.7-4.3,9.2-8.4,14-12.9c2.4,1.8,4.6,3.2,6.6,4.8
	c10.9,8.3,23.1,11.5,36.6,9.7c1-0.1,2-0.2,3-0.4c9.7-2,16.4-7.4,17.4-14.3c1.4-9.6-4.5-15-11.9-18.8c-8.9-4.5-18.2-8.1-27.2-12.5
	c-6.6-3.2-13.3-6.3-19.1-10.6c-20.3-15.2-18.7-42.8,3-55.8c19.8-11.9,52.7-11.4,71.9,10c-4.5,4.3-9,8.5-12.8,12.1
	c-7.7-3.2-14.2-6.5-21.1-8.7c-7.6-2.5-15.2-1.3-22.4,1.8c-11.3,4.8-13.1,16.1-3.4,23.6c5.4,4.2,12,7,18.3,10.1
	c9.8,4.8,20.2,8.8,29.7,14.1c10.8,6,17.2,15.5,18.2,28.2c1.3,17.2-6.7,30.2-22.9,37c-5.5,2.3-11.2,4.1-16.8,6.1L1413.6,1181
	L1413.6,1181z"></path>
    <path d="M485.9,1181c-7.3-3-14.5-6.1-23.1-9.7c3.4-5.8,6.4-10.8,9.3-15.8c5.8,1.4,11.1,3.3,16.6,3.9c9,1.1,12.3-1.4,14.1-10.2
	c0.8-3.9,0.9-7.9,1-11.9c0.1-27.6,0-55.3,0-82.9c0-3.6,0-7.3,0-11.6h20.9c0.2,3.1,0.7,6,0.7,8.9c0,30.6,0.1,61.3,0,91.9
	c0,4.3-0.5,8.6-1.2,12.9c-1.5,9.9-6.7,17.2-16.2,21.1c-2.1,0.9-4,2.3-6,3.4H485.9L485.9,1181z"></path>
    <path d="M928,1042.6h19.2c10,44.3,20,88.3,30.2,133.3h-20c-6.6-29.2-13.4-58.9-20.1-88.5c-0.6-0.1-0.9-0.2-1.1-0.2
	c-0.3,0-0.8,0.2-0.9,0.3c-9.3,29.4-18.6,58.9-28,88.7h-17.9c-8.8-30.1-17.6-60.5-26.5-90.9c-0.8,0-1.7,0.1-2.5,0.1
	c-6.9,30.2-13.8,60.4-20.8,90.9h-19.8c10.2-44.8,20.3-88.9,30.5-133.6h20.2c9.1,30.7,18.3,61.5,27.5,92.2
	C909.9,1104.6,918.1,1073.4,928,1042.6L928,1042.6z"></path>
    <path d="M1647.8,941.4h-20.1c-6.8-29.5-13.5-59.2-20.3-88.9c-11.9,28.9-19.4,59-29.4,88.9h-18.3c-8.8-30-17.7-60.4-26.6-90.8
	c-0.8,0-1.5-0.1-2.2-0.1c-6.9,30.2-13.8,60.5-20.7,91h-19.8c10.2-44.8,20.2-88.7,30.4-133.1h20.3c9,30.4,18.1,61.2,27.2,92.1
	c12.1-30,20.1-61.1,30.3-92.1h19.2C1627.5,852.1,1637.5,896.3,1647.8,941.4L1647.8,941.4z"></path>
    <path d="M2514.7,1076.5v99.6h-20.4v-133.8c6.6,0,13.2-0.7,19.6,0.3c3,0.5,5.9,3.9,8,6.7c22.5,28.5,44.8,57.1,67.1,85.6
	c1.9,2.5,4.1,4.8,8,6.6v-98.7h19.7v133.9c-6.1,0-11.7-0.1-17.3,0c-4.6,0.2-6.1-3.5-8.3-6.2c-19.9-25.4-39.8-50.8-59.8-76.2
	c-4.8-6.2-9.7-12.3-14.6-18.4L2514.7,1076.5L2514.7,1076.5z"></path>
    <path d="M2987.1,1042.2c6.7,0,13-0.7,19.1,0.3c3,0.5,5.9,3.8,8.1,6.5c22.5,28.5,44.8,57.1,67.1,85.6c1.9,2.5,4.1,4.8,7.7,8.9V1043
	h20.5v133.7c-4.1,0-7.7-0.4-11.2,0.1c-7,0.9-11.6-1.8-15.9-7.5c-22.3-29-45-57.7-67.6-86.5c-2-2.5-4.1-4.8-7.9-9.2V1176h-20
	L2987.1,1042.2L2987.1,1042.2z"></path>
    <path d="M1155.8,1076.7v99.3h-19.6v-133.8c6.3,0,12.6-0.7,18.7,0.3c3,0.5,6.1,3.6,8.3,6.3c20.3,25.6,40.3,51.3,60.5,76.9
	c4.3,5.4,8.6,10.8,13.8,17.3c2.8-9.4,1.2-17.6,1.5-25.7c0.3-8.3,0.1-16.6,0.1-25v-24c0-8.3,0-16.5,0-25.5h19.9v132.4
	c-1,0.6-1.6,1.1-2.2,1.2c-12.3,0.8-22.3-3.7-29.8-13.2c-20.7-26.5-41.4-52.9-62.2-79.4c-2.2-2.8-4.4-5.5-6.7-8.2
	C1157.3,1075.9,1156.6,1076.3,1155.8,1076.7L1155.8,1076.7z"></path>
    <path
      d="M2359.1,906.9v-98.7c3.1-0.2,5-0.4,6.9-0.5c3.9-0.1,7.9,0,12.6,0v134.2c-6.2,0-12.2,0.7-17.9-0.3c-3-0.5-6.1-3.7-8.2-6.3
	c-23-29-45.8-58.1-68.6-87.1c-1.9-2.5-4.1-4.8-8.1-6.6v99.7c-4,0.3-6.9,0.7-9.8,0.8c-3,0.1-5.9,0-8.6,0c-2.3-7.7-3-118.8-0.9-134.3
	c6,0,12.3-0.7,18.4,0.3c3,0.5,6.2,3.4,8.3,6.1c21.1,26.6,42,53.4,62.9,80.1c3.5,4.4,7,8.8,10.5,13.1L2359.1,906.9L2359.1,906.9z">
    </path>
    <path d="M1395.4,804c39.2,0,70.3,31.2,70.3,70.5c0,39.3-31.2,70.4-70.4,70.3c-39.3-0.2-70.8-31.6-70.6-70.5
	C1324.8,835.4,1356.3,804.1,1395.4,804L1395.4,804z M1347.5,874c-0.2,23,12.6,42.3,32.8,48.4c35,10.7,65.9-15.9,62.8-52.6
	c-1.7-20.4-11.7-36-31.7-43.1C1379.1,815.2,1347.7,838.6,1347.5,874L1347.5,874z"></path>
    <path d="M2659.8,1176.1v-132.2c0.8-0.6,1.4-1.3,1.9-1.2c18.9,0.2,38.1-1,56.8,1c30.2,3.3,52.1,27.4,54.9,57.2
	c3.8,40.9-18.9,70.2-59.8,74.8C2696.2,1177.7,2678.5,1176.1,2659.8,1176.1L2659.8,1176.1z M2681.7,1156.8c10.4,0,19.8,0.7,28.9-0.2
	c21.5-2.1,35.7-15,39.8-35.9c2.2-11,1.3-21.8-2.8-32.3c-4-10.1-10.8-17.5-20.7-21.9c-14.5-6.6-29.7-5.2-45.2-4.3V1156.8z">
    </path>
    <path d="M1659.5,1116.8v59.2h-21v-132.9c2.1-0.3,4.3-1,6.5-1c17.3-0.1,34.7-0.1,52,0c14.9,0,26.5,6.2,33.9,19.2
	c10.5,18.3,3.2,41.7-15.8,51.2c-2.7,1.3-5.5,2.3-9.6,4.1c14.4,19.8,29.4,38.7,44.9,59.9c-8.7,0.1-15.8,0.6-22.8-0.1
	c-2.3-0.2-4.8-3.3-6.5-5.5c-11.5-15.1-23.1-30.1-33.9-45.7c-4.7-6.8-10-10.1-18.2-8.8C1666.4,1116.7,1663.7,1116.6,1659.5,1116.8
	L1659.5,1116.8z M1660.1,1061.2v37.2c12.1,0,23.6,0.1,35.1-0.1c1.9,0,3.9-0.7,5.8-1.4c7.6-2.9,12.7-11.1,12-18.8
	c-0.7-8.4-7.3-16.3-15.8-16.8C1685.1,1060.7,1672.9,1061.2,1660.1,1061.2L1660.1,1061.2z"></path>
    <path d="M746.6,1116.6c15.1,20,29.6,39.2,45.3,60.1c-8.8,0-15.4,0.5-21.8-0.3c-2.7-0.3-5.6-3.1-7.4-5.5
	c-11.5-15.1-23.3-30-33.9-45.7c-5-7.4-10.8-10.1-19.1-9c-2.3,0.3-4.6,0.3-8.4,0.5c-0.2,19.8-0.4,39.5-0.6,59.6H681
	c-2.3-7.3-3-117-1-132.9c1-0.3,2.1-1.1,3.3-1.1c19.6-0.1,39.3-0.9,58.9,0.2c23.7,1.3,38.9,22.8,33.6,45.7
	c-2.6,11.1-9.2,19-19.2,24.2C754,1113.8,751.1,1114.7,746.6,1116.6L746.6,1116.6z M702,1098.5c5.3,0,10.5,0.1,15.7,0
	c7-0.1,14,0.3,20.9-0.7c10-1.5,16.3-10.2,15.4-20.1c-0.8-9.3-8.1-16.2-18-16.7c-5.3-0.3-10.6-0.1-16-0.1c-6.2,0-12.4,0.1-19.1,0.2
	c0,11.3,0,21.2,0,31.2C701,1094,701.5,1095.6,702,1098.5L702,1098.5z"></path>
    <path d="M1181.7,808.2h20.6v51.4h67v-51.4h19.9c2,7.3,2.4,121.6,0.4,133.1h-20.1v-59.7c-7.8-2.6-48.1-3.3-66.4-1.4
	c-2,19.8,0.3,40-1.3,60.9h-20.1L1181.7,808.2L1181.7,808.2z"></path>
    <path
      d="M2421.9,808.2h20.6c1.1,9,0.4,18.2,0.5,27.3s0,18.3,0,29.9c4-4.2,6.3-6.5,8.4-8.9c12.3-14,24.6-28,36.6-42.3
	c4-4.8,8-7.4,14.4-6.7c4.9,0.5,10,0.1,14.7,0.1c0.4,0.6,0.6,0.9,0.7,1.2c0.1,0.3,0.2,0.7,0.1,0.9c-17.4,20.1-34.9,40.1-52.8,60.7
	c18,23.1,35.9,46.2,54.9,70.7c-9.8,1.5-17.9,1.4-25.9,0.3c-2.4-0.3-4.6-3.5-6.3-5.8c-12-15.9-23.9-32-35.9-48
	c-2.2-2.9-4.4-5.7-7.5-9.6c-2.7,7.7-1.2,14.5-1.4,21.1c-0.3,7-0.1,14-0.1,21s0,13.8,0,21.3h-21.2L2421.9,808.2L2421.9,808.2z">
    </path>
    <path d="M1928.7,822.7c-4.8,4.5-9.2,8.6-13.8,12.9c-9.9-7.3-20.4-12.1-32.6-10.3c-4.2,0.6-8.6,1.7-12.2,3.7c-8.9,5-10.1,15-2.1,21.4
	c5.6,4.5,12.4,7.6,18.9,10.8c9.5,4.7,19.5,8.5,28.9,13.5c9.8,5.2,16.6,13.4,18.7,24.6c2.7,14.6-1,27.1-13.2,36.3
	c-24,18-67,12-86.1-12.1c0.7-0.9,1.4-2.1,2.3-3c3.4-3.2,6.8-6.3,10.9-9.9c3.1,2.2,5.9,4.3,8.8,6.3c12.6,8.5,26.2,11.2,40.8,6.7
	c7-2.1,13-5.6,14.1-13.8c1.1-8.1-3.3-13.5-9.8-17c-7.9-4.3-16.2-7.7-24.2-11.6c-7.2-3.5-14.5-6.7-21.3-10.8
	c-11.7-7.2-17.8-17.9-16.7-31.8c1-13.6,9-22.5,20.9-28.2C1879.1,801.6,1909.4,801.5,1928.7,822.7L1928.7,822.7z"></path>
    <path d="M1808.8,941.5h-22.3c-4.5-11.4-8.9-22.4-13.5-34c-17.9,0-35.5,0.1-53.1,0c-4.1,0-5.8,2.1-7.1,5.6
	c-2.8,7.8-6.2,15.5-8.9,23.3c-1.4,4-3.6,6-8,5.8c-4.9-0.2-9.9,0-16.7,0c18.7-45.6,36.7-89.7,54.8-134h21
	C1772.6,852.1,1790.4,896,1808.8,941.5L1808.8,941.5z M1745,833.5c-7.1,12.2-20.6,48.5-20.8,56c7,0,13.9,0,20.8,0
	c6.7,0,13.5-0.2,21.4-0.3C1759,869.8,1752.2,852.1,1745,833.5L1745,833.5z"></path>
    <path d="M2075.1,881.7v59.6h-20.8V808.7c1.8-0.3,3.3-0.9,4.9-0.9c19-0.1,38-0.4,56.9,0c25.8,0.5,42.7,24.3,35.1,48.6
	c-4.6,14.5-17.1,24.6-32.5,25.2c-10.3,0.4-20.6,0.1-31,0.2C2084.1,881.7,2080.5,881.7,2075.1,881.7L2075.1,881.7z M2076.1,826.9
	v36.8c13.2,0,25.8,0.5,38.3-0.2c9.4-0.5,16.1-9,16.1-18.5c0-9.1-6.3-17.4-15.3-17.9C2102.3,826.3,2089.4,826.9,2076.1,826.9
	L2076.1,826.9z"></path>
    <path d="M564.8,1042.8H639v18.6h-52.5v32.9h52.2v18.2c-8.5,2.7-17.5,1-26.3,1.3c-8.6,0.3-17.1,0.1-26.2,0.1v43h52.5v19.1h-74
	L564.8,1042.8L564.8,1042.8z"></path>
    <path d="M1976.7,1156.8v18.3c-7.4,2-62,2.4-74.2,0.5v-132.9h74.1v18.1c-17.3,1.8-34.5-0.4-52.2,1.3c-1.9,10.4-0.7,20.6-0.9,31.8
	c17.6,1.8,34.8-0.2,52.7,1.2v18.6H1924v42.9H1976.7L1976.7,1156.8z"></path>
    <path d="M1783.7,1042.7h73.4v18.3c-17.1,1.3-34.3-0.3-51.9,1v32.4h51.6v18.8c-16.8,1.8-34-0.3-51.6,1.2v42.5h51.8v19.2h-73.3
	L1783.7,1042.7L1783.7,1042.7z"></path>
    <path d="M1044.8,1095.9c2.4-3.4,4.3-6,6-8.7c7.9-12.3,16.2-24.4,23.6-37.1c3.7-6.3,8.2-9.1,15.3-8c3.2,0.5,6.4,0.4,10.9,0.7
	c-2.3,4-3.8,6.8-5.6,9.6c-11.7,18.6-23.4,37.2-35.3,55.6c-3.2,5-4.7,9.9-4.5,15.9c0.3,14,0.1,28,0.1,41.9v10.4h-21.4
	c0-7.7,0.1-14.9,0-22.1c-0.1-13,2.2-26.6-1.2-38.7c-3.3-11.7-12.4-21.8-19.1-32.5c-6.6-10.8-13.4-21.5-20-32.2
	c-1.3-2.2-2.4-4.5-4.5-8.3c7.2,0,13.1-0.6,18.9,0.3c2.7,0.4,5.5,3.4,7.1,6c8.1,12.6,15.8,25.4,23.7,38.1
	C1040.5,1089.4,1042.4,1092.1,1044.8,1095.9L1044.8,1095.9z"></path>
    <path
      d="M2052,1061.6h-35.2v-17.7c7.6-2.1,81.5-2.5,92-0.4v17.7c-11.5,0.3-22.9,0.7-35.2,1v114H2052L2052,1061.6L2052,1061.6z">
    </path>
    <path
      d="M1540.2,1061.8h-35.4v-19h92c0.3,2.5,0.6,4.4,0.6,6.4c0.1,3.6,0,7.2,0,12.3h-35.8V1176h-21.5L1540.2,1061.8L1540.2,1061.8z">
    </path>
    <path d="M1088.1,827.3h-35.3v-19.4c30.2-0.4,60.6-0.1,91.8-0.2v19h-34.4c-1.1,10.4-0.4,19.9-0.6,29.4c-0.1,9.3,0,18.6,0,27.9v57.3
	H1088L1088.1,827.3L1088.1,827.3z"></path>
    <path d="M2242.3,1157.2h48.2v18.8h-68.9v-133.2h20.6L2242.3,1157.2L2242.3,1157.2z"></path>
    <path d="M2192.9,808.2h19.1c2.1,7.4,2.6,119.4,0.6,133.1h-19.8V808.2z"></path>
  </symbol>
  <symbol xmlns="http://www.w3.org/2000/svg" viewBox="0 0 32 32" id="sass">
    <path
      d="M16 0c8.839 0 16 7.161 16 16s-7.161 16-16 16c-8.839 0-16-7.161-16-16s7.161-16 16-16zM12.817 21.328c0.235 0.865 0.209 1.667-0.031 2.391l-0.084 0.24c-0.031 0.083-0.072 0.161-0.104 0.235-0.187 0.391-0.437 0.749-0.739 1.083-0.933 1.011-2.229 1.396-2.787 1.073-0.604-0.349-0.303-1.781 0.776-2.923 1.161-1.224 2.828-2.011 2.828-2.011v-0.004zM26.036 6.849c-0.724-2.844-5.437-3.776-9.896-2.193-2.656 0.943-5.525 2.423-7.593 4.355-2.459 2.296-2.849 4.296-2.687 5.129 0.572 2.948 4.609 4.881 6.271 6.308v0.011c-0.491 0.239-4.073 2.036-4.912 3.901-0.901 1.957 0.141 3.359 0.817 3.536 2.1 0.583 4.261-0.48 5.423-2.199 1.12-1.681 1.020-3.837 0.536-4.9 0.661-0.177 1.443-0.261 2.443-0.141 2.803 0.323 3.36 2.084 3.24 2.803s-0.699 1.14-0.901 1.26c-0.197 0.12-0.26 0.156-0.24 0.24 0.021 0.12 0.12 0.12 0.281 0.099 0.219-0.036 1.459-0.599 1.521-1.959 0.057-1.724-1.584-3.64-4.5-3.604-1.203 0.027-1.964 0.125-2.5 0.344-0.041-0.057-0.084-0.099-0.141-0.141-1.801-1.937-5.14-3.296-5-5.88 0.043-0.937 0.381-3.416 6.401-6.416 4.937-2.464 8.88-1.781 9.557-0.281 0.98 2.14-2.099 6.12-7.239 6.697-1.959 0.219-2.98-0.536-3.24-0.817-0.281-0.303-0.317-0.323-0.423-0.26-0.156 0.077-0.057 0.339 0 0.5 0.161 0.4 0.781 1.099 1.865 1.457 0.937 0.303 3.24 0.48 6-0.599 3.099-1.197 5.516-4.536 4.817-7.339z">
    </path>
  </symbol>
  <symbol version="1.1" xmlns="http://www.w3.org/2000/svg" xmlns:xlink="http://www.w3.org/1999/xlink"
    preserveAspectRatio="xMidYMid" viewBox="0 -197.5 512 512" id="solarwinds">
    <g>
      <path
        d="M13.3907692,116.578462 C8.90328869,116.644376 4.4453972,115.841956 0.262564103,114.215385 L0.262564103,107.388718 C4.52763729,108.7484 8.9308241,109.629037 13.3907692,110.014359 C17.5917949,110.014359 22.0553846,109.226667 22.0553846,103.975385 C22.0553846,100.036923 19.1671795,98.9866667 15.4912821,97.9364103 L11.8153846,97.1487179 C7.35179487,95.8358974 0,93.9979487 0,85.0707692 C0,75.0933333 8.13948718,72.7302564 16.5415385,72.7302564 C20.6111858,72.575885 24.6596992,73.3855877 28.3569231,75.0933333 L28.3569231,81.6574359 C24.5451425,79.9891713 20.4393322,79.0966039 16.2789744,79.0317949 C11.0276923,79.0317949 7.61435897,80.0820513 7.61435897,84.545641 C7.61435897,88.4841026 10.7651282,89.534359 14.4410256,90.3220513 L18.3794872,91.6348718 C23.3682051,92.9476923 29.4071795,95.8358974 29.4071795,103.712821 C29.6697436,113.690256 22.3179487,116.578462 13.3907692,116.578462 M58.0266667,116.578462 C65.9035897,116.578462 77.7189744,114.215385 77.7189744,94.5230769 C77.7189744,75.0933333 65.6410256,72.4676923 58.0266667,72.4676923 C49.8871795,72.4676923 38.334359,75.6184615 38.334359,94.5230769 C38.334359,113.952821 49.6246154,116.578462 58.0266667,116.578462 M58.0266667,78.5066667 C62.4902564,78.5066667 69.8420513,79.5569231 69.8420513,94.5230769 C69.8420513,108.964103 61.9651282,110.539487 58.0266667,110.539487 C54.8758974,110.539487 46.2112821,109.489231 46.2112821,94.5230769 C46.2112821,79.8194872 53.5630769,78.5066667 58.0266667,78.5066667 M87.9589744,115.790769 L95.8358974,115.790769 L95.8358974,59.3394872 L87.9589744,59.3394872 L87.9589744,115.790769 Z M142.309744,115.790769 L142.309744,87.1712821 C142.309744,76.1435897 136.008205,72.7302564 126.555897,72.7302564 C121.093322,72.7924027 115.679693,73.7686308 110.539487,75.6184615 L110.539487,82.1825641 C115.280227,80.5322494 120.230329,79.5599078 125.243077,79.294359 C130.756923,79.294359 133.907692,80.6071795 133.907692,86.1210256 L133.907692,89.7969231 L124.455385,89.7969231 C117.628718,89.7969231 106.601026,92.16 106.601026,103.712821 C106.601026,114.477949 113.690256,116.841026 120.254359,116.841026 C125.578644,116.817748 130.640464,114.525604 134.170256,110.539487 L134.957949,116.053333 L142.309744,115.790769 L142.309744,115.790769 Z M134.432821,104.763077 C134.432821,104.763077 128.65641,110.276923 122.88,110.276923 C118.678974,110.276923 115.265641,108.701538 115.265641,103.187692 C115.265641,96.3610256 119.466667,94.5230769 126.818462,94.2605128 L134.432821,94.2605128 L134.432821,104.763077 Z M171.191795,79.8194872 C173.448119,79.7871992 175.685555,80.2346862 177.755897,81.1323077 L177.755897,73.7805128 C175.956964,72.9264482 173.96392,72.5640764 171.979487,72.7302564 C167.65335,72.7695489 163.750607,75.3371432 162.002051,79.294359 L160.951795,73.5179487 L154.912821,73.5179487 L154.912821,115.790769 L162.789744,115.790769 L162.789744,84.8082051 C162.789744,84.8082051 166.465641,79.8194872 171.191795,79.8194872 M252.061538,73.2553846 L243.134359,73.2553846 L238.145641,97.6738462 C236.832821,103.975385 235.52,112.114872 235.52,112.114872 C235.52,112.114872 233.682051,103.187692 232.106667,97.6738462 L224.754872,73.2553846 L213.202051,73.2553846 L205.850256,97.6738462 C204.274872,103.187692 202.436923,112.114872 202.436923,112.114872 C202.436923,112.114872 201.124103,103.450256 199.811282,97.6738462 L194.56,73.2553846 L185.370256,73.2553846 L196.923077,115.790769 L207.950769,115.790769 L214.514872,93.2102564 C216.090256,87.4338462 218.978462,77.4564103 218.978462,77.4564103 C218.978462,77.4564103 221.604103,87.4338462 223.179487,93.4728205 L229.74359,116.053333 L240.771282,116.053333 L252.061538,73.2553846 Z M262.038974,115.790769 L269.915897,115.790769 L269.915897,72.9928205 L262.038974,72.9928205 L262.038974,115.790769 Z M320.065641,115.790769 L320.065641,86.9087179 C320.065641,76.1435897 314.026667,72.7302564 306.412308,72.7302564 C300.44938,73.1049953 294.795667,75.5147743 290.395897,79.5569231 L288.820513,73.5179487 L282.781538,73.5179487 L282.781538,115.790769 L290.658462,115.790769 L290.658462,84.8082051 C294.707456,81.7775559 299.5326,79.9567471 304.574359,79.5569231 C310.088205,79.5569231 312.188718,81.6574359 312.188718,86.9087179 L312.188718,115.790769 L320.065641,115.790769 Z M367.852308,115.790769 L367.852308,59.3394872 L359.975385,59.3394872 L359.975385,76.6687179 C356.9414,73.7888112 352.863698,72.2715269 348.685128,72.4676923 C342.908718,72.4676923 329.517949,75.0933333 329.517949,94.5230769 C329.517949,113.427692 340.545641,116.578462 347.109744,116.578462 C352.336862,116.718218 357.349936,114.500897 360.763077,110.539487 L361.550769,115.790769 L367.852308,115.790769 Z M359.975385,105.288205 C356.830303,108.097146 352.879559,109.842823 348.685128,110.276923 C343.69641,110.276923 337.394872,108.701538 337.394872,94.5230769 C337.394872,81.1323077 343.433846,79.0317949 349.472821,79.0317949 C353.351614,79.1873951 357.059292,80.6704663 359.975385,83.2328205 L359.975385,105.288205 L359.975385,105.288205 Z M392.533333,116.578462 C401.460513,116.578462 408.549744,113.952821 408.549744,103.712821 C408.549744,95.8358974 402.248205,92.9476923 397.522051,91.6348718 L393.321026,90.5846154 C389.645128,89.534359 386.494359,88.7466667 386.494359,84.8082051 C386.494359,80.3446154 389.907692,79.294359 395.158974,79.294359 C399.319332,79.359168 403.425143,80.2517354 407.236923,81.92 L407.236923,75.3558974 C403.539699,73.6481518 399.491186,72.8384491 395.421538,72.9928205 C387.019487,72.9928205 378.88,75.3558974 378.88,85.3333333 C378.88,94.2605128 386.231795,96.0984615 390.695385,97.4112821 L394.108718,98.4615385 C397.784615,99.5117949 400.672821,100.299487 400.672821,104.500513 C400.672821,109.751795 396.471795,110.539487 392.008205,110.539487 C387.54826,110.154165 383.145073,109.273528 378.88,107.913846 L378.88,114.740513 C379.142564,114.215385 384.65641,116.578462 392.533333,116.578462"
        fill="#fff"></path>
      <path
        d="M445.833846,47.5241026 C440.057436,49.0994872 434.281026,50.4123077 428.504615,52.2502564 C416.60321,41.5287598 401.630425,34.8231566 385.706667,33.0830769 C409.285414,16.150961 437.548287,6.97470345 466.57641,6.82666667 L456.598974,16.0164103 C456.598974,16.0164103 498.871795,14.4410256 509.374359,0 C509.058321,1.52095267 508.619271,3.01372364 508.061538,4.46358974 C505.053085,13.0417564 499.683251,20.5959291 492.570256,26.2564103 C485.928191,31.4515833 478.593058,35.693588 470.777436,38.8594872 C463.004593,42.250953 455.024063,45.1449911 446.884103,47.5241026 C446.621538,47.2615385 446.09641,47.5241026 445.833846,47.5241026 M512,46.2112821 C485.193186,44.9963044 458.37585,48.3706712 432.705641,56.1887179 C438.129998,61.8497847 442.646895,68.3151468 446.09641,75.3558974 C467.364103,63.5405128 496.771282,48.3117949 512,46.2112821 M448.722051,81.3948718 C451.24827,87.8757772 452.839599,94.6831292 453.448205,101.612308 L490.469744,63.5405128 L448.722051,81.3948718 Z"
        fill="#fff"></path>
    </g>
  </symbol>
  <symbol version="1.1" id="tech" xmlns="http://www.w3.org/2000/svg" xmlns:xlink="http://www.w3.org/1999/xlink" x="0px"
    y="0px" xml:space="preserve" viewBox="0 0 82.43 82.43">
    <g>
      <g>
        <path d="M76.712,62.718c-0.672-1.567-1.792-1.792-3.136-2.239c-6.496-2.463-11.872-3.584-18.145-5.823
			c-0.449-0.224-2.24-1.345-2.24-4.479c0-1.344-0.225-2.016-1.793-2.016c-0.446,0-0.225,0-0.446-0.896
			c-0.448-2.912-0.448-4.479-0.448-4.929s0.448-0.896,0.672-1.12c2.24-2.912,2.688-6.72,2.688-8.512c0,0,0.446,0.224,0.896-0.896
			c0.448-1.344,0.674-1.791,1.12-3.358c0.448-1.12,0.673-3.584-0.896-3.584c-0.896,0.447-0.672,0-0.672-1.12c0-3.36,0-4.929,0-8.288
			c-0.226-2.912-2.018-4.704-3.359-5.601c-2.016-1.344-2.688-1.792-3.584-2.464s-0.672-1.567,0-2.464
			c0.447-0.448,0.896-0.672,1.344-0.896c5.152,2.912,8.96,8.288,8.96,14.783v4.48c-0.896,0.672-1.344,2.464-1.344,4.256
			c0,1.344,0.226,2.688,0.672,3.36l-1.12,6.048c-0.445,0.225-0.896,0.896-0.896,1.568c0,0.896,0.673,1.791,1.794,1.791
			c0.896,0,1.791-0.673,1.791-1.791c0-0.448-0.224-0.896-0.447-1.12l1.119-5.152c1.345-0.224,2.465-2.239,2.465-4.704
			c0-1.792-0.672-3.584-1.567-4.256v-4.48C60.139,8.511,51.626,0,41.323,0C31.02,0,22.506,8.511,22.506,18.815v4.48
			c-0.896,0.672-1.567,2.464-1.567,4.256c0,2.688,1.12,4.704,2.688,4.704c1.345,0,2.464-2.017,2.464-4.704
			c0-1.792-0.447-3.584-1.344-4.256v-4.48c0-9.407,7.615-16.575,16.575-16.575c2.688,0,5.152,0.672,7.393,1.792
			c-0.445,0-5.15,0.672-6.943,1.12c-3.584,0.896-7.168,2.016-9.855,4.479c-2.017,1.568-3.809,3.584-4.032,6.272
			c0,1.344,0,5.823,0,8.287c0,0.673,0,1.12-0.672,0.896c-1.792,0-0.672,3.136-0.672,3.36c0.447,1.791,0.672,2.239,1.119,3.584
			c0.225,1.118,0.673,0.896,0.673,0.896c0.447,2.24,1.344,6.272,3.136,8.514c0.225,0.225,0.448,0.672,0.448,1.119
			c-0.225,1.567-0.225,3.359-0.448,4.928c0,0.226-0.225,0.896-0.672,0.896c-1.345,0-1.567,0.896-1.567,2.016
			c-0.225,2.24-1.345,4.033-2.24,4.48c-3.136,1.344-14.111,4.704-17.695,5.824c-2.465,0.445-3.137,1.344-3.584,2.24l-3.137,8.062
			c13.889,0,21.057,8.736,35.393,10.976c0,0,2.017,0.449,3.359,0.449c1.345,0,3.361-0.449,3.361-0.449
			c14.781-2.463,25.088-10.976,35.168-10.976L76.712,62.718z M31.239,59.134l2.688,2.688l1.568,0.225l2.017-2.016l-0.448-1.568
			l-2.688-2.688c1.567-0.447,3.137,0,4.256,1.119c1.345,1.345,1.567,3.138,1.12,4.705l0,0l-1.792,1.791h-0.671l-1.12,1.119
			c-1.345,0.225-2.688-0.224-3.584-1.344C31.239,62.271,30.792,60.479,31.239,59.134z M36.168,76.383l-1.792-0.224l-2.912-2.912
			l-0.225-1.792l6.496-6.496l1.792,0.225l-0.447-0.672l1.119-1.121l1.568,1.568l5.601-5.602l0.446-1.344l2.688-2.017l1.347,1.565
			l-2.019,2.688l-1.345,0.448l-5.6,5.6l1.344,1.344l-1.119,1.121l-0.672-0.449l0.224,1.795L36.168,76.383z M51.85,73.471
			l-2.688-2.688l-1.345-0.226l-2.018,2.018l0.227,1.344l2.688,2.688c-1.566,0.447-3.136,0-4.256-1.119s-1.344-2.465-1.12-3.81
			l1.12-1.12v-0.672l1.792-1.792l0,0c1.567-0.448,3.36-0.224,4.704,1.12C51.85,70.111,52.296,71.902,51.85,73.471z">
        </path>
      </g>
    </g>
    <g></g>
    <g></g>
    <g></g>
    <g></g>
    <g></g>
    <g></g>
    <g></g>
    <g></g>
    <g></g>
    <g></g>
    <g></g>
    <g></g>
    <g></g>
    <g></g>
    <g></g>
  </symbol>
  <symbol version="1.1" id="training" xmlns="http://www.w3.org/2000/svg" xmlns:xlink="http://www.w3.org/1999/xlink"
    x="0px" y="0px" xml:space="preserve" viewBox="0 0 496 496">
    <g>
      <g>
        <g>
          <path d="M432,336h-10.84c16.344-13.208,26.84-33.392,26.84-56v-32c0-30.872-25.128-56-56-56h-32c-2.72,0-5.376,0.264-8,0.64V48
				h16V0H0v48h16v232H0v48h187.056l40,80H304v88h192v-96C496,364.712,467.288,336,432,336z M422.584,371.328l-32.472,13.92
				L412.28,352h5.472L422.584,371.328z M358.944,352h34.112L376,377.576L358.944,352z M361.872,385.248l-32.472-13.92L334.24,352
				h5.472L361.872,385.248z M432.008,280C432,310.872,406.872,336,376,336s-56-25.128-56-56h37.424
				c14.12,0,27.392-5.504,37.368-15.48l4.128-4.128c8.304,10.272,20.112,16.936,33.088,18.92V280z M48,192v72h107.176
				c0.128,0.28,0.176,0.584,0.312,0.856L163.056,280H32V48h304v149.48c-18.888,9.008-32,28.24-32,50.52v32h-65.064l-24.816-46.528
				C208.368,222.696,197.208,216,185,216c-10.04,0-18.944,4.608-25,11.712V192H48z M144,208v40H64v-40H144z M360,208h32
				c22.056,0,40,17.944,40,40v15.072c-9.168-2.032-17.32-7.48-22.656-15.48l-8.104-12.152l-17.768,17.768
				c-6.96,6.96-16.208,10.792-26.048,10.792H320v-16C320,225.944,337.944,208,360,208z M16,16h336v16H16V16z M16,312v-16h155.056
				l8,16H16z M256,392h-19.056L169.8,257.712c-1.176-2.36-1.8-4.992-1.8-7.608V249c0-9.376,7.624-17,17-17c6.288,0,12.04,3.456,15,9
				l56,104.992V392z M247.464,296h58.392c1.28,5.616,3.232,10.968,5.744,16H256L247.464,296z M264.536,328h57.952
				c2.584,2.872,5.352,5.568,8.36,8H268.8L264.536,328z M480,480h-32v-32h32V480z M480,432h-32v-32h-16v80H320v-88h-48v-40h45.76
				l-7.168,28.672L376,408.704l65.416-28.032l-7.144-28.56C459.68,353.312,480,374.296,480,400V432z"></path>
          <path d="M160,128v-16h-16.808c-1.04-5.096-3.072-9.832-5.856-14.024l11.92-11.92l-11.312-11.312l-11.92,11.92
				c-4.192-2.784-8.928-4.816-14.024-5.856V64H96v16.808c-5.096,1.04-9.832,3.072-14.024,5.856l-11.92-11.92L58.744,86.056
				l11.92,11.92c-2.784,4.192-4.816,8.928-5.856,14.024H48v16h16.808c1.04,5.096,3.072,9.832,5.856,14.024l-11.92,11.92
				l11.312,11.312l11.92-11.92c4.192,2.784,8.928,4.816,14.024,5.856V176h16v-16.808c5.096-1.04,9.832-3.072,14.024-5.856
				l11.92,11.92l11.312-11.312l-11.92-11.92c2.784-4.192,4.816-8.928,5.856-14.024H160z M104,144c-13.232,0-24-10.768-24-24
				s10.768-24,24-24s24,10.768,24,24S117.232,144,104,144z"></path>
          <polygon points="244.28,80 272,80 272,64 235.72,64 203.72,112 176,112 176,128 212.28,128 			"></polygon>
          <rect x="288" y="64" width="32" height="16"></rect>
          <path d="M224,144h-48v48h48V144z M208,176h-16v-16h16V176z"></path>
          <rect x="240" y="160" width="32" height="16"></rect>
          <rect x="288" y="160" width="32" height="16"></rect>
        </g>
      </g>
    </g>
    <g></g>
    <g></g>
    <g></g>
    <g></g>
    <g></g>
    <g></g>
    <g></g>
    <g></g>
    <g></g>
    <g></g>
    <g></g>
    <g></g>
    <g></g>
    <g></g>
    <g></g>
  </symbol>
  <symbol fill="#fff" xmlns="http://www.w3.org/2000/svg" viewBox="0 0 24 24" id="vscode">
    <path
      d="M0.228341 8.36915C0.228341 8.36915 -0.356212 7.94324 0.345251 7.37453L1.97956 5.89736C1.97956 5.89736 2.44721 5.40004 2.94164 5.83334L18.0231 17.375V22.9094C18.0231 22.9094 18.0158 23.7785 16.9124 23.6825L0.228341 8.36915Z"
      fill="#fff"></path>
    <path
      d="M4.11555 11.9367L0.228273 15.5089C0.228273 15.5089 -0.171172 15.8093 0.228273 16.346L2.03308 18.0053C2.03308 18.0053 2.46175 18.4706 3.09502 17.9413L7.21611 14.7827L4.11555 11.9367Z"
      fill="#fff"></path>
    <path
      d="M10.94 11.9661L18.0691 6.46362L18.0228 0.95865C18.0228 0.95865 17.7183 -0.242793 16.7027 0.382548L7.21589 9.11025L10.94 11.9661Z"
      fill="#fff"></path>
    <path
      d="M16.9121 23.69C17.3261 24.1183 17.8279 23.978 17.8279 23.978L23.3838 21.2108C24.0951 20.7208 23.9952 20.1127 23.9952 20.1127V3.58803C23.9952 2.86175 23.2596 2.61063 23.2596 2.61063L18.4441 0.264377C17.3919 -0.392968 16.7027 0.382548 16.7027 0.382548C16.7027 0.382548 17.5892 -0.262484 18.0228 0.95865L18.0228 22.8086C18.0228 22.9588 17.9911 23.1065 17.9278 23.2394C17.8011 23.4979 17.5259 23.7392 16.8658 23.6383L16.9121 23.69Z"
      fill="#fff"></path>
  </symbol>
  <symbol role="img" xmlns="http://www.w3.org/2000/svg" viewBox="0 0 24 24" id="xd">
    <title>Adobe XD icon</title>
    <path
      d="M19.75.3H4.25C1.9.3 0 2.2 0 4.55v14.9c0 2.35 1.9 4.25 4.25 4.25h15.5c2.35 0 4.25-1.9 4.25-4.25V4.55C24 2.2 22.1.3 19.75.3zm3.24 18.76a3.623 3.623 0 0 1-3.62 3.64H4.63c-2 0-3.63-1.63-3.63-3.63V4.93c0-2 1.63-3.63 3.63-3.63h14.73a3.63 3.63 0 0 1 3.63 3.63v14.13zm-13.5-7.81l2.8 5.38c.05.08.02.16-.06.16h-1.74c-.11 0-.16-.03-.21-.13-.64-1.32-1.29-2.64-1.96-4.06H8.3c-.6 1.34-1.26 2.75-1.9 4.07-.05.08-.1.11-.18.11H4.57c-.1 0-.11-.08-.06-.14l2.74-5.22L4.6 6.14c-.06-.08 0-.14.06-.14h1.72c.1 0 .14.02.18.11.63 1.32 1.27 2.68 1.87 4.01h.02c.58-1.32 1.22-2.69 1.84-4 .05-.08.08-.13.18-.13h1.61c.08 0 .11.06.06.14l-2.65 5.12zm3.29 1.63c0-2.33 1.55-4.15 4.01-4.15.21 0 .32 0 .52.02V6.1c0-.06.05-.1.1-.1h1.58c.08 0 .1.03.1.08v9.18c0 .27 0 .61.05.98 0 .06-.02.08-.08.11-.84.4-1.72.58-2.56.58-2.17.01-3.72-1.33-3.72-4.05zm4.53-2.56c-.14-.06-.34-.1-.58-.1-1.26 0-2.14.97-2.14 2.58 0 1.84.9 2.58 2.03 2.58.24 0 .5-.03.69-.11v-4.95z">
    </path>
  </symbol>
</svg>